<svg viewBox="0 0 300 82"><path class="st0" d="M79.4,56.1c-0.7-1.4-0.8-2.7-1.5-3.9c-0.3-0.5-0.7-1-1.1-1.5c-1.1-0.5-2.3-1.1-3.6-1.7c-0.1-6.9,0-13.8,0-20.7 c1.5-0.8,3.2-0.9,4.1-2.4c0.9-1.4,1.3-2.9,1.8-4.3c0.7-0.3,1.4-0.2,2.1-0.2c28,0,55.9,0,83.9,0c12.7,0,25.5,0.1,38.2,0 c5-0.1,10-0.2,15-0.2c0.6,0,1.2,0,2,0c0.6,2,1.1,3.9,2.8,5.7c0.8,0.4,1.9,1,2.9,1.5c0.3,0.6,0.3,1,0.3,1.5c0,2.2,0,4.4,0,6.6 c0,2.3-0.1,4.6,0.2,7c0.3,1.8,0.1,3.7-0.4,5.7c-1.3,0.8-3,1.1-4,2.6c-0.9,1.3-1.3,2.9-1.8,4.4C173.4,56.1,126.5,56.1,79.4,56.1z M81,53.2c0.7,0.6,1.5,0.6,2.2,0.4c1-0.2,1.9-0.2,2.9-0.2c25.6,0.2,51.1-0.4,76.7,0.3c2.1,0.1,4.3-0.1,6.4,0c1.6,0,3.3-0.3,4.9-0.3 c14.2,0,28.5,0,42.7,0c0.7,0,1.4,0.1,2.2-0.3c0.8-2.6,2.7-4.5,5.3-5.7c0-5.9,0-11.7,0-17.6c-2.5-1.4-4.6-3.1-5.3-6.1 c-46,0-91.9,0-137.9,0c-0.8,2.8-2.6,4.7-5.1,5.9c-0.2,1.8-0.2,16.5,0,17.8C79.2,49.9,79.2,49.9,81,53.2z"></path><path d="M6.5,34.9c4.6-2.9,9.4-5.2,14.4-7.1c2.3-0.9,4.6-2,7.1-2.5c1.5-0.3,2.9-0.3,4.4-0.2c0.7,0,1.5,0.3,1.7,1.1 c0,0.8-0.8,0.9-1.1,1.3c-1,1.9-1.2,4-1.3,6.1c0,0.8,0,1.6,0,2.4c-0.2,5.5,1.2,10.7,2.6,15.9c0.1,0.4,0.3,0.9,0.4,1.3 c-0.8,1-1.8,1.6-3,1.6c-0.8,0-1.5,0.1-2,0.7c-1-0.4-1.9-0.5-2.6-0.1c-0.9-0.2-1.7-0.9-2.5-0.2c-0.4-0.2-0.9-0.5-1.2-0.7 c-0.5-0.2-0.9,0.1-1.3,0.2c-1.2-0.8-2.6-0.6-3.9-0.8c-0.7-0.4-1-1.2-1.9-1.5c-1.2,1-0.4,2-0.1,3.1c-0.9,1-2.2,1.3-3.3,1.8 C11.6,58,10.2,58,9,58.9c-1.3,1.9-1.3,3.9-0.1,6c0.5,0.9,1.1,1.9,0.7,2.9c-0.5,0.5-1.2,0.1-1.9,0.9c-0.5,1.7,1.4,2.8,1.9,4.4 c-1,1-1.5,1.1-2.5,0.4c-2-1.2-3.4-2.9-4.2-5.2c-0.7-2-1.2-4-1.4-6.1c-0.2-2.4,0.3-4.6,1.2-6.7c-0.1-0.5-0.2-0.9-0.6-1 c-0.7-0.1-0.9,0.5-1.4,0.9c-0.5-1.1-0.4-2.1,0.1-3.1c0.5-1,0.9-2.1,1.4-3.1c0.7-1.5,0.9-3,0.2-4.7C3.8,41.3,4.7,37.9,6.5,34.9z M10.8,41.1c-1.6-0.8-2.6-0.7-3.2,0.2c-1.2,1.8-2.1,3.8-2.1,6.1c0.7-0.2,0.5-1.1,1.1-1.4c0.9-0.9,2.5-0.5,3.5-1.7 C10,43.3,10.6,42.3,10.8,41.1z"></path><path d="M266.9,27.7c-0.4-0.6-1.1-0.7-1.2-1.4c0.2-1,1.1-1.1,2-1.2c2.5-0.2,4.9,0.2,7.2,1.1c4.2,1.8,8.6,3.2,12.7,5.4 c1.9,1,3.8,2.1,5.6,3.1c1.9,3.1,2.7,6.5,4,9.7c-1.2,2.7,0.3,5,1.3,7.2c0.5,1.2,0.9,2.3,0.5,3.6c-0.7,0.1-0.7-1-1.3-0.8 c-0.6,0.1-0.6,0.6-0.9,0.9c0.9,1.8,1.3,3.7,1.3,5.6c0,3.5-0.9,6.8-2.7,9.9c-0.8,1.3-2.1,2.1-3.4,2.8c-0.7,0.4-1.4,0.2-2-0.5 c0.3-1.6,2.3-2.7,1.9-4.5c-0.5-0.8-1.3-0.4-1.9-0.9c-0.4-1.1,0.2-2.1,0.7-3c1.2-2,1.3-3.9-0.1-6c-2.1-1.2-5-1.3-7-3.2 c0.2-1,1.1-2.1-0.1-3.2c-0.9,0.3-1.2,1.1-1.9,1.5c-1.3,0.1-2.7,0-3.8,0.7c-0.5,0.1-0.9-0.3-1.3-0.2c-0.4,0.2-0.9,0.5-1.3,0.7 c-0.8-0.7-1.6,0-2.5,0.2c-0.8-0.4-1.6-0.3-2.5,0.1c-0.7-0.4-1.3-0.7-2.1-0.7c-1.3,0-2.3-0.6-3.1-1.6c1.4-4,2.1-8.1,2.8-12.2 c0.2-0.9,0.2-1.7,0.2-2.5c0-2.6,0.1-5.2-0.3-7.8C267.6,29.5,267.1,28.6,266.9,27.7z M294.2,47.4c-0.2-2.7-0.7-4-1.9-5.9 c-0.8-1.2-2-1.3-3.3-0.3c0.3,1.1,0.6,2.3,0.9,3.4c1,0.9,2.6,0.6,3.4,1.5C293.7,46.5,293.6,47.1,294.2,47.4z"></path><path d="M150,70.5c-0.8-1.8-2.3-2.1-3.9-2.4c-3.9-0.7-7.7-2-11.4-3.4c-2.6-0.9-5.2-2-7.9-2.7c-2.6-0.7-5.3-0.6-8-0.3 c-2.3,0.3-4.7,0.6-7.3,1.2c1.4-2.2,2.7-4,4.1-5.8c0.6,0,1.3,0,1.9,0c7.6,0,15.3,0.1,22.9,0c2.8,0,5.1,0.9,7.2,2.7 c0.9,0.8,1.8,1.5,2.9,2.4c0.6-0.6,1.3-1.2,1.9-1.9c0.8-0.9,1.7-1.5,2.6-2.2c0.8-0.6,1.7-0.9,2.7-0.9c8.9,0,17.9,0,26.8,0 c0.2,0,0.4,0,0.7,0.1c1.5,1.6,2.6,3.5,3.9,5.2c-0.2,0.5-0.5,0.3-0.7,0.3c-3.6-0.6-7.2-1.3-11-1.2c-2.5,0.1-4.8,0.9-7.1,1.7 c-3.7,1.3-7.4,2.7-11.1,3.8c-1.4,0.4-2.7,0.7-4.1,1c-1.6,0.3-3.2,0.7-4.3,2.1C150.5,70.3,150.4,70.3,150,70.5z M161.1,64.1 c0.9-0.6,1-1.1,1.3-1.6c0.3-0.6-0.1-1.3,0.4-1.8c1.9-0.6,3.4,1.4,5.3,0.8c0.3-0.4,0.6-0.7,0.3-1.4c-1.9-0.9-3.9-1.6-6.1-0.9 c-0.7,0.2-1.3,0.4-1.4,1.4C161.9,61.4,161.4,62.6,161.1,64.1z M181.2,59.2c-0.6,0-1.2,0.1-1.8,0c-1.7-0.4-3.4-0.2-5.1-0.2 c-1,0-2,0.2-2.9,0.7c-0.1,0.1-0.2,0.3-0.3,0.3c0.1,0.3,0.2,0.4,0.6,0.6c1.7-0.6,3.5-0.7,5.3-0.6c2,0.1,4.1,0.2,6.1,0.6 c0.6,0.1,1.2,0.3,1.8-0.1c-0.8-1.2-2.4-2.2-3-2C181.3,58.6,181.5,59,181.2,59.2z M129.5,59.9c-0.2-0.5-0.7-0.5-1.1-0.6 c-2.2-0.5-4.4-0.4-6.6-0.2c-0.8,0.1-1.7,0.2-2.5,0.1c-0.1-0.2-0.1-0.4-0.1-0.5c0-0.1-0.2-0.1-0.3-0.3c-1.2,0.3-2.4,0.8-3.1,2 c0.7,0.4,1.3,0.3,1.9,0.1c1.8-0.4,3.6-0.3,5.4-0.5c2-0.2,4.1-0.2,5.8,0.5C129.4,60.3,129.5,60.2,129.5,59.9z M139.4,64.2 c0.7,0.1,1.6,0.4,2.4,0.4c1.4,0,2.7,0.2,3.3,1.8c0.8-0.9,0.8-0.9-0.2-2.3c0.1-0.5,0.8-0.7,0.7-1.4c-0.9-0.7-1.9-1.1-3.2-1.4 c-0.4,0.3-1,0.2-1.2,0.9c0.9,0.2,1.7,0.1,2.4,0.9c-1.4,0.4-2.8,0.1-4,0.1C139.3,63.5,139.2,63.8,139.4,64.2z M137.5,62.8 c0.3-0.6,0.7-1.1,0.8-1.4c1.5-1.4,3.1-1.8,4.7-2.5c-2.5,0.1-4.6,1.2-6.2,3c-1.3-0.4-1.1-1.8-1.8-2.5c-1.8-0.1-3.1,0.8-3,2.2 c1,0.2,1.1-1.5,2.3-1.1c0.6,0.3,0.3,1.2,0.8,1.6C135.8,62.7,136.5,63.1,137.5,62.8z M152.4,65.9c2.6,0.4,4.9-0.2,6.8-1.9 c0.4-0.3,0.6-0.8,0.8-1.3c0.1-0.6,0-1.1-0.8-1.3c-0.9,0.5-2.2,0.6-2.8,1.7c0.9,0.7,1.7-0.4,2.7,0C157.3,65.1,154.5,64.7,152.4,65.9z M146.9,64.6c0.3,0.8,1,1,1.6,1.3c0.5-0.3,0.7-0.5,0.5-1c-0.4-0.4-0.8-0.8-1.3-0.9C147.3,64,147.1,64.2,146.9,64.6z M153.8,62 c0.7-0.6,2.1-0.3,2.5-1.6C154.9,60.3,154.3,61,153.8,62z"></path><path d="M43.7,51.9c-0.6,2-1.5,3.7-2.4,5.4c-1.5,0-2.4-1-3.1-3.2c-0.2-0.4-0.7-0.1-1-0.3c-0.7-0.9-1-2.1-1.1-3.3 c-0.1-1.1,0-2.3,0-3.3c-0.4-0.2-0.6,0.2-1,0c-0.4-1.4-1-2.8-0.5-4.4c0.2-0.5,0-1,0-1.8c-0.3-0.2-0.7-0.4-0.9-0.5 c-0.2-1.8-0.2-3.3,0.2-4.1c0-6,0.8-11.1,4.3-15.4c0.6-0.2,1-0.2,1.5,0c1.6,1.8,2.5,4,3.1,6.4c-1,2.4-1,2.4-0.6,3.6 c0.8,0,0.7-1.2,1.7-1.2c0.1,0,0.3,0.1,0.5,0.2c0.8,0.9,1.9,1.1,3.1,1.1c0.8,0,1.6-0.1,2.4,0.4c1.1,1.2,1.4,2.9,1.6,4.5 c0.1,1.6,0.1,3.2-0.1,4.8c-0.3,2.1-0.3,4.2,0.6,6.2c0.2,0.4,0.3,0.7,0.2,1.2c-1.7,0.6-3.5,0.1-5.3,0.4c-0.5,0.4-1.1,0.8-1.5,1.2 c-0.6,0.1-0.9-0.5-1.4-0.5C42.8,50.3,43.4,51.1,43.7,51.9z"></path><path d="M256.8,27.6c0.6-2.5,1.5-4.6,3.1-6.5c0.4-0.2,0.9-0.2,1.4,0c1.5,1.6,2.5,3.5,3.1,5.7c0.1,0.5,0.4,1.1,0.6,1.6 c0.3,0.8,0.5,1.6,0.4,2.6c-0.1,1.1,0.2,2.3,0.4,3.3c0.1,0.6-0.1,1-0.3,1.5c0.6,1.4,0.6,2.9,0.4,4.8c-0.2,0.1-0.6,0.3-0.9,0.5 c0.1,2.2,0.7,4.3-0.5,6.2c-0.2,0.1-0.4-0.3-0.8-0.1c0.1,2.2,0.2,4.5-1.1,6.6c-0.2,0.3-0.6-0.1-1,0.2c-0.3,0.6-0.4,1.5-1.1,2.1 c-0.6,0.6-0.9,1.5-2.1,1.2c-0.9-1.8-1.8-3.5-2.4-5.5c0.3-0.8,0.8-1.6,0.1-2.4c-0.7-0.4-0.9,0.5-1.7,0.2c-0.4-0.3-0.9-0.7-1.4-1.1 c-1.7-0.2-3.5,0.2-5.3-0.3c-0.2-0.4-0.1-0.8,0.1-1.1c1-2.2,0.9-4.4,0.6-6.7c-0.4-3.1-0.4-6.1,1.3-8.7c0.8-0.7,1.6-0.6,2.4-0.6 c1.3,0.1,2.5-0.1,3.4-1.2c0.1-0.1,0.3-0.1,0.4-0.1c0.9,0,0.8,1.1,1.7,1.2C258.3,29.8,257.3,28.8,256.8,27.6z"></path><path d="M219.1,19.6c-1.5,1.1-2.6-0.4-3.9-0.8c-0.1,0-0.3,0-0.4,0.1c-0.3,0.1-0.5,0.3-0.7,0.3c-0.3,0.4,0.4,0.6,0,1.1 c-1.9,0-3.8,0-5.9,0c-0.6-0.2-1.2-1-2.1-0.8c-0.4,0.1-0.4,0.5-0.5,0.8c-0.2,0-0.3,0.1-0.5,0.1c-3,0-6,0-9.1,0c-1,0-1.9-0.2-2.8-0.6 c-3.5-1.4-7.1-2.4-10.8-3.1c-1.3-0.2-2.7-0.3-4.1-0.5c-0.6-0.1-1.3,0-1.7-0.6c1.7-1.9,4-2.3,6.4-2.2c0-0.8-0.7-0.7-0.9-1.2 c0.8-1.2,2-1.9,3.2-2.4c2.6,0.4,2.6,0.4,3.3-0.4c-0.3-0.5-1-0.2-1.3-0.8c1.2-0.7,2.4-1.2,3.7-1.5c5.6,0.8,10.9,2,16.1,4 c2.8,1.1,5.6,2.2,8.2,3.8c1.4,0.9,2.4,2.1,3.4,3.3C219,18.4,219.2,18.9,219.1,19.6z"></path><path d="M109,7.1c1.4,0.3,2.6,0.9,3.8,1.4c-0.3,0.8-1,0.5-1.3,0.8c0.6,1,0.6,1,3.1,0.4c1.3,0.5,2.4,1.3,3.3,2.4 c-0.1,0.6-0.8,0.4-0.9,1.1c1.1,0.7,2.3,0,3.4,0.5c1.1,0.4,2.1,1.2,3.1,1.8c-0.3,0.6-0.8,0.7-1.3,0.7c-5.4,0.3-10.5,1.6-15.5,3.6 c-0.7,0.3-1.4,0.4-2.2,0.4c-3.3,0-6.6,0-9.8,0c-0.4-0.2-0.2-0.7-0.6-0.9c-1-0.3-1.5,0.6-2.3,0.8c-1.9,0-3.8,0-5.7,0 c-0.6-0.4,0.1-0.6,0-0.9c-0.3-0.4-0.7-0.5-1.1-0.6c-3,1.4-3,1.4-4,0.7c-0.1-0.8,0.4-1.3,0.9-1.9c1.3-1.7,3-2.9,4.9-3.8 c4.9-2.4,10-4.1,15.3-5.3C104.2,7.9,106.5,7.5,109,7.1z"></path><path d="M229,12.2c0.2,2.8-0.9,4.3-3.5,5.1c-0.5,0-0.4-0.6-0.8-0.9c-1.5,0.3-2.1,2-3.9,2.2c-0.2,0-0.3-0.3-0.4-0.5 c-1.3-2.2-3.3-3.5-5.5-4.7c-4.3-2.4-8.9-3.8-13.5-5.2c-2.2-0.7-4.4-1.6-6.7-1.9c-0.1,0-0.1-0.2-0.3-0.3c2.2-0.9,4.3-1.6,6.7-1 c1.2,0.3,2.5,0.4,3.8-0.1c-0.2-0.6-0.8-0.2-0.9-0.7c0-0.2,0.2-0.3,0.3-0.3c2.1-0.2,4.1,0,6.1,0.4c2.4,0.4,4.8,0.8,7.1,1.6 c3.1,1,6.2,2.3,9.1,3.9C227.7,10.2,228.5,11,229,12.2z"></path><path d="M79.3,18.5c-1.7-0.1-2.5-1.8-3.8-2.2c-0.6,0.1-0.4,0.8-0.9,0.8c-2.5-0.4-3.8-2.2-3.6-5c0.6-1.5,1.9-2.4,3.2-3.1 c4.5-2.3,9.2-4.1,14.3-4.8c2.1-0.3,4.2-0.8,6.4-0.7c0.4,0,0.8-0.1,1.1,0.3c0,0.6-0.7,0.3-0.9,0.7c1.1,0.7,2.3,0.6,3.4,0.3 c2.5-0.7,4.8,0,7.1,0.9c-0.1,0.5-0.4,0.5-0.8,0.6c-5.7,1.4-11.3,3.1-16.6,5.4C84.6,13.3,81.2,15,79.3,18.5z"></path><path d="M33.4,14.6c1.2,0.1,2.6-0.5,3.8,0.6c0.9,0,1.5-0.7,2.5-0.9c1.6,0.4,3.4,0.8,4.9,1.9c-0.3,0.9-0.9,1.1-1.7,1.1 c-4.6,0.3-8.9,1.4-13.3,2.6C28.9,20,28.3,20.2,28,21c0.1,0.9-0.7,2,0.3,3.3c-3.7,1.1-7.3,2.1-10.7,3.6c-3.4,1.4-6.6,3.2-9.8,5 c-0.4-0.6-0.3-1.1-0.2-1.6c0.5-0.4,1-0.9,1.4-1.2c0.9-2.5,1.5-4.9,3.3-6.3c1-0.5,1.6,0.1,2.2,0c0.6-0.9-0.4-1.1-0.6-1.7 c0.8-0.9,0.9-1,2.3-1.8c0.6-0.2,0.9,0.6,1.4,0.4c0.9-0.5,0.1-1,0.1-1.5c1.9-1.4,2.2-1.4,3.8-0.6c0.8-0.3,0.5-1,0.6-1.7 c1.1-0.4,2.2-1,3.2-0.9c0.7,0.1,0.8,0.6,1.2,0.8c0.6-0.2,0.3-0.9,0.7-1.3c1.2-0.3,2.5-0.7,3.8-0.5c0.5,0.1,0.3,0.7,0.8,0.9 C32.3,15.7,32.6,15,33.4,14.6z"></path><path d="M290.9,30.1c0.3,0.3,0.8,0.7,1.3,1.1c0.2,0.5,0.2,1,0,1.4c-0.2,0.2-0.3,0.2-0.5,0.1c-2-1-3.9-2.1-5.9-3.1 c-4.1-2.1-8.4-3.6-12.9-4.8c-0.4-0.1-0.9-0.1-1.3-0.6c0.6-1,0.2-2.1,0.1-3.2c-0.3-0.8-0.9-1-1.6-1.2c-4.4-1.2-8.8-2.3-13.3-2.6 c-0.7,0-1.3-0.2-1.7-1.1c1.4-1.2,3.2-1.6,5-2c0.7,0.3,1.5,0.7,2.2,0.9c0.6,0,0.7-0.5,1.1-0.6c1,0,2,0,3,0c0.5,0.4,1,0.8,1.4,1.2 c0.7,0.1,0.5-0.6,1-0.8c1.2-0.4,2.5,0.2,3.7,0.4c0.5,0.3,0.2,1,0.7,1.4c0.5,0.1,0.4-0.6,0.9-0.7c1.3-0.1,1.3-0.1,3.6,0.8 c0.3,0.5-0.2,1.3,0.7,1.7c1.4-1.2,2.6-0.4,3.8,0.6c0,0.5-0.7,0.9,0,1.5c0.5,0.3,0.8-0.5,1.4-0.4c0.9,0.3,1.6,1,2.4,1.5 c0,0.8-1.2,1-0.7,1.9c0.3,0.3,0.6,0.1,1,0c0.3-0.1,0.6-0.1,0.9-0.1C289.3,25,289.9,27.4,290.9,30.1z"></path><path d="M63.3,9.6c0,0.3,0.1,0.7,0.1,1c0,2.4,1.2,4.2,3,5.6c1,0.8,2,1.5,3.1,2.1c0.5,0.3,0.9,0.7,1.3,1.1c0.6,1.8-0.8,2.3-1.9,2.9 c-0.6,0.8-1.1,1.6-1,2.7c0,1.1-0.7,1.7-1.3,2.5c-1.7-0.6-3-2.1-4.9-2c-1.1,0.9-1.7,2.1-2.7,3.1c-2.3,1.1-3.6-0.8-5.2-1.7 c-0.4-1.9-0.1-3.7,0.7-5.3c0.6-1.3,1.1-2.6,0.6-4.1c-0.2-0.5,0-1,0-1.6c1-1.5,2-3,3.2-4.5c0.9-1.2,2.3-1.8,3.7-2.3 C62.3,8.8,62.8,9,63.3,9.6z"></path><path d="M246.4,26.8c-1.7,0.9-3,2.8-5.4,1.8c-0.8-0.9-1.7-2-2.5-3c-2-0.3-3.3,1.4-5,1.9c-0.7-0.9-1.4-1.7-1.3-2.9 c0-0.8-0.5-1.5-0.8-2.2c-1-0.8-2.6-1.1-2.1-2.9c0.4-0.6,1-1,1.6-1.4c1.3-0.8,2.6-1.6,3.7-2.7c1.3-1.3,2.2-2.9,2.1-4.8 c0-0.3,0.1-0.7,0.1-0.9c0.5-0.8,1.2-0.8,1.9-0.5c1.5,0.6,2.9,1.3,3.8,2.7c0.9,1.3,1.8,2.6,2.7,3.8c0.2,0.8,0.2,1.4,0,2.1 c-0.4,1.2-0.1,2.2,0.4,3.3C246.4,22.8,246.7,24.7,246.4,26.8z"></path><path d="M52,31c-0.4-0.4-0.8-0.7-1.1-1.1c0.4-1.3,0.9-1.6,2-1.2c0.7,0.3,1.3,0.6,1.9,1.2c0.4,0.4,0.9,0.9,1.4,1.3c0.7,0,1.4,0,2,0 c0.9,0.4,1.4,1.1,1.7,1.8c2.1,4.1,3.4,8.4,4.2,12.9c0.1,0.8,0.2,1.7-0.1,2.6c-1.5,0.4-2.9,0-4.4,0.2c-0.9,0.4-1.3,1.5-2.4,2 c-0.6-0.2-1.3-0.3-2-0.5c-1.5-1.9-2.2-4.1-2.4-6.5c-0.1-2.5,0.1-5.1,0-7.7C52.7,34.3,52.6,32.6,52,31z"></path><path d="M244.5,50.2c-0.8,0.2-1.4,0.4-2,0.5c-0.9-0.4-1.4-1.3-2.3-1.9c-1.4-0.3-3,0.1-4.4-0.2c-0.8-3.6,2.7-14.7,5.4-17.1 c0.7-0.3,1.6,0,2.4-0.2c1-0.8,1.7-1.9,3-2.4c1.2-0.5,1.5-0.4,2.3,1c-2.2,1.4-1.8,3.8-2,6c-0.2,2.6,0,5.2-0.1,7.8 C246.8,46,246,48.2,244.5,50.2z"></path><path d="M62.2,27.1c1.9,1.1,3.2,2.6,4.8,3.9c1-0.8,1.3-2.3,2.7-2.7c0.8-0.2,1.6-0.2,2.3-0.1c0.4,1.3,0.6,16,0.2,20.4 c-0.3,0.8-1.2,1.1-1.8,1.5c-0.3,0.9-1,1.6-1.8,2.2c-1.1-0.7-1.8-1.7-2.6-2.5c-0.9-5.9-2.3-11.5-4.3-17c-0.1-0.2-0.2-0.4-0.3-0.6 C60,30.3,61.1,28.8,62.2,27.1z M69.8,40.2c-1.1,0.6-1.1,0.6-1.5,1.7c0.2,1,0.9,1.5,1.9,1.6c0.8-0.3,1.2-0.9,1.3-1.6 C71.3,40.9,70.8,40.4,69.8,40.2z M69.9,35.9c1-0.2,1.5-0.8,1.6-1.7c-0.2-0.9-0.8-1.4-1.6-1.5c-0.9,0.2-1.5,0.8-1.6,1.7 C68.5,35.2,69,35.7,69.9,35.9z"></path><path d="M227.4,28.3c1.2-0.2,2.2-0.3,3.2,0.3c0.9,0.6,1.1,1.7,2,2.4c1.6-1.3,2.9-2.8,4.6-3.8c1.7,1.4,2,2.9,1.2,4.7 c-1.6,3.8-2.7,7.7-3.5,11.7c-0.4,2-0.9,4-1.1,6.1c-0.7,1-1.6,1.7-2.5,2.7c-1-0.6-1.7-1.3-2-2.3c-0.6-0.4-1.4-0.7-1.8-1.5 C227.4,42,227.4,35.2,227.4,28.3z M229.5,43.5c1.1-0.1,1.7-0.6,1.9-1.7c-0.2-0.9-0.7-1.5-1.7-1.6c-0.9,0.2-1.4,0.7-1.5,1.6 C228.3,42.6,228.7,43.1,229.5,43.5z M229.7,32.7c-1.1,0.6-1.1,0.6-1.6,1.7c0.2,0.9,0.7,1.5,1.7,1.6c0.9-0.2,1.4-0.7,1.5-1.6 C231.2,33.4,230.7,32.9,229.7,32.7z"></path><path d="M29,59.9c0.2-0.4,0.4-0.7,0.7-0.8c1.1-0.5,6.2-1.8,7.4-1.8c2.3,1.4,2.3,1.4,4.5,1.2c2-1.2,3-3.3,4-5.3 c0.5-1,1.1-1.9,1.9-2.8c1.4,0,2.6,0.6,3.8,0.9c1.2,0.3,2.4,0.5,3.7,0.7c1.4,0.2,2.8,0,4.2-0.6c0.8-0.4,1.6-0.6,2.4-0.9 c0.5-0.2,1.1-0.4,1.6,0c0.3,0.5,0.2,1,0,1.5c-1.7,1.4-3.5,2.7-5.5,3.6c-0.5,0.2-0.9,0.4-1.4,0.5c-1.4,0.4-2.7,0.9-3.8,2.1 c-1.2,1.2-3,2-4.8,2c-2.4,0-4.7,0.6-7,1.2c-3.1,0.9-6.3,0.7-9.4,0.1C30.3,61.3,29.2,61.2,29,59.9z"></path><path d="M258.2,58.4c2.1,0.5,3.4-0.2,4.7-1.2c2.5,0.3,4.9,1.2,7.4,1.9c0.3,0.1,0.6,0.4,0.7,0.7c0,0.8-0.5,1.2-1.2,1.4 c-1.1,0.4-2.2,0.6-3.3,0.7c-3,0.2-5.9,0.1-8.7-0.9c-1.5-0.6-3.1-0.7-4.7-0.8c-2.3-0.1-4.4-0.8-6.1-2.6c-0.6-0.6-1.3-0.9-2.1-1.1 c-3.2-0.7-5.7-2.5-8.1-4.4c-0.3-0.5-0.4-1,0-1.5c0.1,0,0.3-0.1,0.4-0.2c1-0.1,1.9,0.3,2.8,0.8c2.8,1.5,5.6,1,8.5,0.2 c1.3-0.3,2.5-0.7,3.7-1.1c1.1,0.7,1.6,1.8,2.2,2.9C255.4,55.2,256.3,57.3,258.2,58.4z"></path><path d="M86.9,3.3c-0.5,0.4-1.1,0.5-1.7,0.7c-4,0.9-7.9,2.1-11.5,4.1c-1.8,1-3.5,2.2-4.4,4.1c-0.2,1.2-0.1,2.5,0.5,3.7 c-1.5-0.1-2.2-1-2.9-1.9c-0.9-1.4-1.3-2.9-1.1-4.5c0.1-1.4,1.1-2.2,2.2-2.8c2.7-1.6,5.7-2.5,8.8-3.1c2.9-0.6,5.8-0.6,8.8-0.6 C86,2.9,86.5,2.8,86.9,3.3z"></path><path d="M230.2,16c0.7-1.4,0.8-2.6,0.5-3.9c-1-1.8-2.6-3-4.4-4c-3.6-1.9-7.4-3.1-11.3-4c-0.6-0.1-1.2-0.2-1.7-0.6 c0-0.5,0.5-0.4,0.8-0.5c4.9-0.3,9.6,0.3,14.2,1.9c1.4,0.5,2.8,1.2,4.1,2c1.3,0.8,2,2,1.9,3.7C234,13.2,232.8,15.1,230.2,16z"></path><path d="M190.6,20.2c-6.9,0-13.6,0-20.6,0c0.8-1,1.9-1.4,2.7-2.1c1.2-1,2.6-1.4,4.3-1.3c4.3,0.4,8.5,1.2,12.6,2.5 C190,19.6,190.4,19.6,190.6,20.2z"></path><path d="M109.4,20.2c0.2-0.6,0.7-0.7,1.1-0.8c4.3-1.3,8.7-2.3,13.2-2.5c1.1-0.1,2.1,0.1,3,0.9c1,0.8,2.2,1.3,3.3,2.4 C123,20.2,116.2,20.2,109.4,20.2z"></path><path d="M154.2,57.4c-1.3,1.1-2.5,2.2-3.8,3.3c-1.4-1.1-2.8-2.2-4.2-3.3C147.8,57.1,152.5,57.1,154.2,57.4z"></path><path class="st0" d="M217.9,25c0.9,2.6,2.7,4.5,5.2,5.5c0.3,1.7,0.3,14.5,0,16c-1,0.8-2.4,1.2-3.2,2.3c-0.8,1-1.7,2-1.9,3.2 c-1.5,0.3-132.6,0.5-135.9,0.2c-1-2.4-2.5-4.5-5.1-5.4c-0.3-1.4-0.4-14.4-0.1-16.4c2.5-1,4.1-3.1,5.2-5.5 C83.9,24.7,216.3,24.7,217.9,25z M217.1,26.4c-1-0.7-1.8-0.5-2.6-0.5c-14.1,0.2-28.2-0.3-42.3,0.3c-3.1,0.1-6.3-0.2-9.4-0.2 c-10.5,0-21-0.3-31.6,0.2c-3.8,0.2-7.7-0.2-11.6-0.2c-7.7,0-15.5-0.1-23.2,0.1c-3.8,0.1-7.6,0-11.4-0.1c-0.8,0-1.6,0-2.3,0.7 c-1,2-2.7,3.5-4.5,4.6c-0.4,0.6-0.4,1.1-0.4,1.6c0,3.9,0,7.8,0,11.8c0,0.6,0.1,1.2,0.6,1.8c1.9,1,3.5,2.5,4.4,4.6 c0.4,0.3,0.7,0.4,1.2,0.4c44.3,0,88.6,0,133,0c0.9-2.5,2.7-4.2,4.9-5.3c0-5.1,0-9.9,0-14.8C219.6,30.1,218,28.5,217.1,26.4z"></path><path d="M220.7,56.2H79.3l-0.2-0.8c0-0.2-1-4.8-5.2-6.1l-0.7-0.2V28.6l0.7-0.2c4.3-1.3,5.2-6,5.2-6.1l0.2-0.8h141.4l0.1,0.8 c0,0.2,0.9,4.8,5.2,6.1l0.7,0.2v20.5l-0.7,0.2c-4.3,1.3-5.2,6-5.2,6.1L220.7,56.2z M80.9,54.2h138.2c0.8-2.9,2.9-5.3,5.6-6.6V30 c-2.8-1.2-4.9-3.6-5.6-6.6H80.9c-0.8,2.9-2.9,5.3-5.6,6.6v17.7C78,48.9,80.1,51.3,80.9,54.2L80.9,54.2z"></path><path d="M218,52.4H82l-0.1-0.3c-0.8-2.3-2.6-4.2-4.8-5.2l-0.3-0.1V30.9l0.3-0.1c2.2-1,4-2.9,4.8-5.2l0.1-0.4h136l0.1,0.4 c0.8,2.3,2.6,4.2,4.8,5.2l0.3,0.1v15.9l-0.3,0.1c-2.2,1-4,2.9-4.8,5.2L218,52.4z M82.7,51.4h134.6c0.9-2.3,2.7-4.3,4.9-5.3V31.5 c-2.3-1.1-4-3-4.9-5.3H82.7c-0.9,2.3-2.7,4.3-4.9,5.3v14.6C80,47.2,81.8,49.1,82.7,51.4L82.7,51.4z"></path></svg>
