<svg data-name="Layer 1" xmlns="http://www.w3.org/2000/svg" viewBox="0 0 300 82"><path d="M220.69,56.19H79.31l-.15-.8c0-.21-1-4.82-5.18-6.09l-.7-.21V28.58l.7-.21c4.26-1.28,5.17-6,5.18-6.08l.15-.8H220.69l.15.8c0,.2.95,4.81,5.18,6.08l.7.21V49.09l-.7.21c-4.26,1.28-5.17,6-5.18,6.08Zm-139.81-2H219.12a10,10,0,0,1,5.64-6.56V30a10,10,0,0,1-5.64-6.56H80.88A10,10,0,0,1,75.24,30V47.67A10,10,0,0,1,80.88,54.23Z"></path><path d="M218,52.44H82l-.1-.35a9,9,0,0,0-4.79-5.2l-.31-.13V30.91l.31-.12a9,9,0,0,0,4.79-5.2l.1-.35H218l.1.35a9,9,0,0,0,4.79,5.2l.31.12V46.76l-.31.13a8.93,8.93,0,0,0-4.79,5.2Zm-135.33-1H217.31a9.76,9.76,0,0,1,4.93-5.34V31.56a9.77,9.77,0,0,1-4.93-5.35H82.69a9.77,9.77,0,0,1-4.93,5.35V46.12A9.76,9.76,0,0,1,82.69,51.46Z"></path><path d="M193,57.77H175s-6.68,5-15.65,0h-7.89s3,6.36,4.07,8.48c0,0,.58-.79.87-.75s3,4.07,3.61,4.32c0,0,.71-1.08.83-.79,0,0,4.53,4.86,6.56,5.48,0,0,0-.79.42-1,0,0,4.32,1.79,5.85,1.29,0,0-3-3.2-.87-6s5.52-4.53,8.89-3.53,4.4,2.32,4.77,4.36c0,0,3.16-2,5.11-.5s.54,5.85-3.82,7.64c0,0,9.05-.08,11.79-8C199.49,68.78,194.05,63.38,193,57.77Zm-4.15,6.32c-1.62.33-4-1.71-5.15-2.74,0,0-14.61,6.31-19.35,3.19a28.15,28.15,0,0,0,10.43-1.49c5-1.87,9.13-3.37,9.13-3.37s3.57,3.45,4.82,3.45,3-1.78,3-1.78S190.48,63.75,188.86,64.09Z"></path><path d="M196.29,57.77s1.83,11.71,11.42,12,9.88-12,9.88-12Z"></path><path d="M229.43,34.32s6.81,6,11.62,4.42,5.4-12.31-.74-17.63c0,0,2.4,3.32,1,5a5.8,5.8,0,0,0-1.24,1.67,6.45,6.45,0,0,0-6.31-.25s-1.25-.92-.09-1.25c0,0-1.74-3.16-9-2.24,0,0-1-1,2-.92,0,0,0-.83-2.58-2,0,0-1.82,5.32,5.23,6.23Z"></path><path d="M244,40.13s8.55.5,10.55-6-1.25-14.95-11.3-20.51-26.9-7.81-38-4.4c0,0-1.41,2,.83,1.24s13.21-.58,18.36,1.25,14.94,4.63,20.34,12.15h1l-.29,1.3,1.12,2.95s1.12-.58,1.24-1A8.75,8.75,0,0,1,247,30.5s1.58-.38,1.83-.75a8.28,8.28,0,0,1-1.54,2.12,24.34,24.34,0,0,1-.5,4.65C246.41,37.72,244,40.13,244,40.13Z"></path><path d="M284.4,16.82S278.92,32,263.14,38.41s-19.82,4.38-24.13,4.1c0,0-2.61,4.43-6.48,6.09l-3.88,1.66s-4.87.69-5.53,7.51h-3.49s-.33,7-3.12,9.68c0,0,12.88,5,20.43,0,0,0-5.56.58-7.76-1.29s-1.83-3.9,0-5.44,7.8,1.25,7.8,1.25.38-5.57,6.81-7.68,12.54-.21,11.42,4.19L262.89,53s2-1.41,1.21,2.29c0,0,2.53-1.29,5.69-5.57s3.15-1.7,3.15-1.7a5.85,5.85,0,0,1,0,2.16S288.17,39.52,284.4,16.82ZM243.21,50s-4.4,5.48-6.72,6.56S226.11,53,226.11,53c2.74-.25,7.14,2.66,9.38,2s6.73-7.06,6.73-7.06C268.54,45.19,280,31.24,280,31.24,269.7,46.27,243.21,50,243.21,50Z"></path><path d="M202.73,20.12s10-5.11,14.49-1.62c0,0-3.28.95-3.61,1.62Z"></path><path d="M207.59,16.82a10.5,10.5,0,0,0-6.27,3.3h-5.44s3.27-3.59,6.43-4.16C205.8,15.34,207.59,16.82,207.59,16.82Z"></path><path d="M194.92,20.12s1.46-3,2.41-3.3c0,0-3.15-.44-6.1,3.3Z"></path><path d="M192,17.54s-1.58,1.75-1.62,2.58h-3.24S190.19,16.92,192,17.54Z"></path><path d="M186.16,20.12l.71-1.42s-2.08,0-2.45,1.42Z"></path><path d="M100.9,68.78c2.74,7.89,11.79,8,11.79,8-4.36-1.79-5.77-6.19-3.82-7.64s5.11.5,5.11.5c.37-2,1.41-3.36,4.77-4.36s6.77.75,8.89,3.53-.88,6-.88,6c1.54.5,5.86-1.29,5.86-1.29.41.25.41,1,.41,1,2-.62,6.56-5.48,6.56-5.48.13-.29.83.79.83.79.67-.25,3.33-4.28,3.62-4.32s.87.75.87.75C146,64.13,149,57.77,149,57.77h-7.89c-9,5-15.66,0-15.66,0H107.37C106.34,63.38,100.9,68.78,100.9,68.78Zm7.72-7.43s1.78,1.78,3,1.78,4.82-3.45,4.82-3.45,4.15,1.5,9.13,3.37A28.09,28.09,0,0,0,136,64.54c-4.73,3.12-19.35-3.19-19.35-3.19-1.12,1-3.53,3.07-5.14,2.74S108.62,61.35,108.62,61.35Z"></path><path d="M104.09,57.77s-1.82,11.71-11.42,12-9.88-12-9.88-12Z"></path><path d="M71,34.32s-6.81,6-11.63,4.42-5.39-12.31.75-17.63c0,0-2.41,3.32-1,5a6,6,0,0,1,1.25,1.67,6.45,6.45,0,0,1,6.31-.25s1.25-.92.08-1.25c0,0,1.75-3.16,9-2.24,0,0,1-1-2-.92,0,0,0-.83,2.57-2,0,0,1.83,5.32-5.23,6.23Z"></path><path d="M56.43,40.13s-8.56.5-10.55-6S47.13,19.2,57.17,13.64s26.91-7.81,38-4.4c0,0,1.42,2-.83,1.24s-13.2-.58-18.35,1.25S61,16.36,55.6,23.88h-1l.29,1.3-1.12,2.95s-1.12-.58-1.25-1a8.94,8.94,0,0,0,.87,3.41s-1.57-.38-1.82-.75a8.19,8.19,0,0,0,1.53,2.12,25.21,25.21,0,0,0,.5,4.65C54,37.72,56.43,40.13,56.43,40.13Z"></path><path d="M27.45,50.22a5.85,5.85,0,0,1,0-2.16s0-2.58,3.15,1.7,5.69,5.57,5.69,5.57c-.75-3.7,1.2-2.29,1.2-2.29l7.73,5.44c-1.12-4.4,5-6.31,11.41-4.19S63.44,62,63.44,62s6-2.78,7.81-1.25,2.16,3.57,0,5.44-7.77,1.29-7.77,1.29c7.56,5,20.43,0,20.43,0-2.78-2.7-3.11-9.68-3.11-9.68H77.27c-.66-6.82-5.54-7.51-5.54-7.51L67.86,48.6c-3.88-1.66-6.48-6.09-6.48-6.09-4.32.28-8.36,2.32-24.14-4.1S16,16.82,16,16.82C12.22,39.52,27.45,50.22,27.45,50.22Zm-7.06-19s11.46,14,37.78,16.69c0,0,4.49,6.4,6.73,7.06s6.64-2.24,9.38-2c0,0-8,4.65-10.38,3.57S57.17,50,57.17,50,30.68,46.27,20.39,31.24Z"></path><path d="M97.66,20.12S87.65,15,83.17,18.5c0,0,3.28.95,3.61,1.62Z"></path><path d="M92.8,16.82a10.5,10.5,0,0,1,6.27,3.3h5.44s-3.27-3.59-6.44-4.16C94.58,15.34,92.8,16.82,92.8,16.82Z"></path><path d="M105.46,20.12s-1.45-3-2.4-3.3c0,0,3.15-.44,6.1,3.3Z"></path><path d="M108.41,17.54S110,19.29,110,20.12h3.24S110.2,16.92,108.41,17.54Z"></path><path d="M114.22,20.12l-.7-1.42s2.07,0,2.45,1.42Z"></path></svg>
