<svg data-name="Layer 1" xmlns="http://www.w3.org/2000/svg" viewBox="0 0 300 82"><path d="M220.69,56.15H79.31l-.15-.8c0-.21-1-4.82-5.18-6.09l-.7-.21V28.54l.7-.21c4.26-1.28,5.17-6,5.18-6.08l.15-.8H220.69l.15.8c0,.2.95,4.81,5.18,6.08l.7.21V49.05l-.7.21c-4.26,1.28-5.17,6-5.18,6.08Zm-139.81-2H219.12a10,10,0,0,1,5.64-6.56V30a10,10,0,0,1-5.64-6.56H80.88A10,10,0,0,1,75.24,30V47.63A10,10,0,0,1,80.88,54.19Z"></path><path d="M218,52.4H82l-.1-.35a9,9,0,0,0-4.79-5.2l-.31-.13V30.87l.31-.12a9,9,0,0,0,4.79-5.2l.1-.35H218l.1.35a9,9,0,0,0,4.79,5.2l.31.12V46.72l-.31.13a8.93,8.93,0,0,0-4.79,5.2Zm-135.33-1H217.31a9.76,9.76,0,0,1,4.93-5.34V31.52a9.74,9.74,0,0,1-4.93-5.35H82.69a9.74,9.74,0,0,1-4.93,5.35V46.08A9.76,9.76,0,0,1,82.69,51.42Z"></path><path d="M73,50.65c-.86,0-1.14-1.63-1.14-1.63V28.46c.12-.7,1-1.27,2.28-1.47a2.38,2.38,0,0,0,1.77-1.3A12.19,12.19,0,0,1,74.51,25a2.32,2.32,0,0,1-.74-.85s-1.06-.37-2.07,1.38-5.79,24-6.07,25.29a1,1,0,0,0,1,1.34c1-1,2.81-.44,4.35-.2a59,59,0,0,1,6.11,1.91C76.7,51.59,73.81,50.69,73,50.65Z"></path><path d="M71.67,23.24c.58-1.9-1.88-1.79-2.92-1.88s-1.19-.89-2-1.34a1.53,1.53,0,0,0-2.11.73A22,22,0,0,1,63,24.84c-.42.43-.39.4-.67,0a1.71,1.71,0,0,0-1.47-1c-.91-.09-1,.22-1.61,0s-.25-.79-.8-1.34-1.62-.12-2-.06-1.9-.31-1.65-1.28,4.27-2.57,4.27-2.57,2.17-.73,1.19-1.44S50,15,47.83,14.88s-10.78.4-11.51,1.23,4.09,5.22,5.47,6.84,10.84,7.39,11.63,7.6.77-.64.67-1.19-.58-2.14-.61-2.56a2.68,2.68,0,0,1,.4-1.65c.31-.28,1.19.67,1.25.85a14.85,14.85,0,0,0,2,1.62c.46.31.55,0,.79-.43s.61-.24.58.12,1,1.2,1.38,1.14a4.19,4.19,0,0,1,1.16-.25c.46,0,.33,1.19.33,1.19s-.91,2.75-1,3.12-.65.67-1,.85-.37.09-.76-.18-.07-.8-.46-1.1-1.41.73-1.41.73S41,28.48,40.53,28.38s-.21-.24-.7-1.1a1.28,1.28,0,0,0-1.89-.36,1.56,1.56,0,0,1-1.35.3c-.45-.09-.09-.49-.15-.94s-.91-.61-1.65-.61-.49.51-1.16.45-.09-.18-.58-1-1.95,0-2.5.36-.61.09-.64-.06-.46,0-1.41-.73,2.35-3,3.27-3.61.55-.94.55-.94c-7-2.23-24.16.88-23.82,2.38S21.84,33.15,21.84,33.15s-2.84,1-2.53,1.92S30,42.74,32.44,44a30.71,30.71,0,0,0,7.24,2c-1.5-1.53-1.83-5.84-1.65-6.17s1,0,1.1.09a4,4,0,0,0,1.22.24c.46.06,1,.83,1.16,1.16s1.35.16,1.53-.18.91-.46.91-.46a2.46,2.46,0,0,0,1,.95c.58.18,1.06-.73,1.06-.73l11.23,2.48s-1.62,7-1.62,8,.93.35,1.62,0a7.2,7.2,0,0,1,4.6.58,2.52,2.52,0,0,0,2.25.29s3.68-16,4.14-17.62S71.67,23.24,71.67,23.24Zm-22.78-.95c-.43,0-.47-.45-.47-.45a15.88,15.88,0,0,1,1.35-2.32.42.42,0,0,1,.65,0c.43.47-.12,1.4-.29,1.65S49.32,22.25,48.89,22.29Zm4.75-1.55-1.27,2a9.92,9.92,0,0,1-1.14,1.38c-.26.15-.51-.05-.65-.45s.37-1,.37-1,1.46-2.55,2.1-2.52C54,20.13,53.64,20.74,53.64,20.74ZM24,24.69l-1.38,1.87a.22.22,0,0,1-.3,0l-1-.8a.2.2,0,0,1,0-.3l1.52-1.81a.21.21,0,0,1,.3,0l.83.74A.21.21,0,0,1,24,24.69ZM26,28a.88.88,0,0,1-.89.49A.86.86,0,0,1,24.6,28s.37-3.59.51-4a.57.57,0,0,1,.57-.4c.8,0,.85.38.85.38S26.07,27.76,26,28Zm6.53,2.75s-4.8.48-5.58.69-.4-2.85,0-3,.86.09,1.14.7,1,1.26,1.67,1.14,1.27-.82,1.63-.7S33.17,30.33,32.56,30.74Zm1.69,7.33c-.22.26-.67,0-.67,0a6.62,6.62,0,0,1-.39-1.57c0-.59.11-.83.19-.86.69-.26.87.65.87.65S34.48,37.8,34.25,38.07Zm1.47,2c-.14.27-.27.43-.63.37s-.47-.51-.47-.51l1.55-4.77c.91-.32.93.38.93.38S35.86,39.86,35.72,40.12Zm23.13-1.77a6.06,6.06,0,0,1-.69,1.75c-.39.43-.8,0-1.23-.1s-10-2.08-10.66-2.34-.41-.88-1.37-1.33-.26.29-.81,1-.55,0-1.29-.3-.69-.84-1.56-1.57-.63.2-1.12.9-.68.42-1,.28-.55-.92-.55-.92S40.63,33,40.77,33c.36,0,.22.77.28.87s.25.18.55-.1a9.54,9.54,0,0,1,1-.84c.43-.3.53-.14.61-.14s1.9.47,1.9.47,7.1,2,8.32,2.24a5.43,5.43,0,0,1,2,.69s.79.86,1,1,.51-.55,1-.73S59,36.88,59,37A5.48,5.48,0,0,1,58.85,38.35Z"></path><path d="M227,50.65c.86,0,1.14-1.63,1.14-1.63V28.46c-.12-.7-1-1.27-2.28-1.47a2.38,2.38,0,0,1-1.77-1.3,12.19,12.19,0,0,0,1.36-.74,2.32,2.32,0,0,0,.74-.85s1.06-.37,2.07,1.38,5.79,24,6.07,25.29a1,1,0,0,1-1,1.34c-1-1-2.81-.44-4.35-.2a59,59,0,0,0-6.11,1.91C223.3,51.59,226.19,50.69,227,50.65Z"></path><path d="M231.73,34.58c.46,1.67,4.14,17.62,4.14,17.62a2.52,2.52,0,0,0,2.25-.29,7.2,7.2,0,0,1,4.6-.58c.69.35,1.62,1,1.62,0s-1.62-8-1.62-8L254,40.85s.48.91,1.06.73a2.46,2.46,0,0,0,1-.95s.73.12.91.46,1.35.52,1.53.18.7-1.1,1.16-1.16a4,4,0,0,0,1.22-.24c.12-.12.92-.43,1.1-.09s-.15,4.64-1.65,6.17a30.71,30.71,0,0,0,7.24-2c2.44-1.25,12.83-8,13.13-8.92s-2.53-1.92-2.53-1.92,13-9.13,13.34-10.63-16.82-4.61-23.82-2.38c0,0-.36.36.55.94s4.22,2.84,3.27,3.61-1.38.58-1.41.73-.09.43-.64.06-2-1.19-2.5-.36.09.94-.58,1-.43-.45-1.16-.45-1.59.15-1.65.61.3.85-.15.94a1.56,1.56,0,0,1-1.35-.3,1.28,1.28,0,0,0-1.89.36c-.49.86-.28,1-.7,1.1s-16.28,4.43-16.28,4.43-1-1-1.41-.73-.06.82-.46,1.1-.45.37-.76.18-.85-.49-.95-.85-1-3.12-1-3.12-.13-1.16.33-1.19a4.19,4.19,0,0,1,1.16.25c.4.06,1.41-.77,1.38-1.14s.33-.54.58-.12.33.74.79.43a14.85,14.85,0,0,0,2-1.62c.06-.18.94-1.13,1.25-.85a2.68,2.68,0,0,1,.4,1.65c0,.42-.52,2-.61,2.56s-.13,1.41.67,1.19,10.26-6,11.63-7.6,6.2-6,5.47-6.84-9.31-1.32-11.51-1.23-11.52,1.56-12.49,2.26,1.19,1.44,1.19,1.44,4,1.59,4.27,2.57-1.28,1.34-1.65,1.28-1.43-.49-2,.06-.15,1.13-.8,1.34-.7-.09-1.61,0a1.71,1.71,0,0,0-1.47,1c-.28.43-.25.46-.67,0a22,22,0,0,1-1.56-4.09,1.53,1.53,0,0,0-2.11-.73c-.85.45-1,1.25-2,1.34s-3.5,0-2.92,1.88C228.33,23.24,231.27,32.91,231.73,34.58Zm18.14-13.41c-.17-.25-.72-1.18-.29-1.65a.42.42,0,0,1,.65,0,15.88,15.88,0,0,1,1.35,2.32s0,.49-.47.45S250,21.41,249.87,21.17ZM247,20.09c.64,0,2.1,2.52,2.1,2.52s.52.61.37,1-.39.6-.65.45a9.92,9.92,0,0,1-1.14-1.38l-1.27-2S246,20.13,247,20.09Zm29.12,4.32.83-.74a.21.21,0,0,1,.3,0l1.52,1.81a.2.2,0,0,1,0,.3l-1,.8a.22.22,0,0,1-.3,0L276,24.69A.21.21,0,0,1,276.07,24.41Zm-2.6-.41s0-.37.85-.38a.57.57,0,0,1,.57.4c.14.42.51,4,.51,4a.86.86,0,0,1-.54.45A.88.88,0,0,1,274,28C273.93,27.76,273.47,24,273.47,24Zm-4.89,5.55c.36-.12.93.57,1.63.7s1.38-.53,1.67-1.14.73-.86,1.14-.7.77,3.22,0,3-5.58-.69-5.58-.69C266.83,30.33,268.21,29.68,268.58,29.55Zm-2.83,6.74s.18-.91.87-.65c.08,0,.21.27.19.86a6.62,6.62,0,0,1-.39,1.57s-.45.26-.67,0S265.75,36.29,265.75,36.29Zm-2.85-.7s0-.7.93-.38L265.38,40s-.1.45-.47.51-.49-.1-.63-.37S262.9,35.59,262.9,35.59ZM241,37c.06-.11,1.22-.76,1.67-.57s.77.85,1,.73,1-1,1-1a5.43,5.43,0,0,1,2-.69c1.22-.2,8.32-2.24,8.32-2.24s1.82-.47,1.9-.47.18-.16.61.14a9.54,9.54,0,0,1,1,.84c.3.28.49.2.55.1s-.08-.92.28-.87c.14,0,2.24,2.76,2.24,2.76s-.18.78-.55.92-.56.41-1-.28-.24-1.63-1.12-.9-.83,1.28-1.56,1.57-.74,1-1.29.3.15-1.46-.81-1-.73,1.08-1.37,1.33S243.49,39.92,243.07,40s-.84.53-1.23.1a6.06,6.06,0,0,1-.69-1.75A5.48,5.48,0,0,1,241,37Z"></path><path d="M94.56,57.37c-.41,0,44,0,44,0s-2.85,6-3.67,7.73-2.28,2.77-3.34,2.12a1.26,1.26,0,0,0-1.71.2,3.4,3.4,0,0,1-1.87-.93c-.57-.73-12.13-4.4-13.68-4.72s-2.88.08-3.67-.41C108.65,60.14,96.35,57.45,94.56,57.37Z"></path><path d="M139.23,57.36S136.5,65,134.55,67c0,0,.65.45,1.54-.49a61.48,61.48,0,0,0,5.42-9.17Z"></path><path d="M205.44,57.37c.41,0-44,0-44,0s2.85,6,3.67,7.73,2.28,2.77,3.34,2.12a1.26,1.26,0,0,1,1.71.2,3.4,3.4,0,0,0,1.87-.93c.57-.73,12.13-4.4,13.68-4.72s2.88.08,3.67-.41C191.35,60.14,203.65,57.45,205.44,57.37Z"></path><path d="M160.77,57.36S163.5,65,165.45,67c0,0-.65.45-1.54-.49a61.48,61.48,0,0,1-5.42-9.17Z"></path><path d="M147.78,13.49l-.73-.72a.61.61,0,0,0-.91.09,20.84,20.84,0,0,0-2.6,4.76H99.27v2.47h45.85a2.22,2.22,0,0,0,.18-.55c.4-1.2,1.42-4.08,2.48-5.2A.6.6,0,0,0,147.78,13.49Z"></path><path d="M103.14,16.69h40.28s.52-1.63.81-1.75h-1.1s-4.07-5.38-4.2-5.54-2.72,5.49-3.29,5.7h-4.32s-6.19-7.49-6.48-7.7l-3.33,7.45h-3.63s-8.75-8.5-9.08-9.38a88.3,88.3,0,0,0-2,9.18l-3.21.08a7.19,7.19,0,0,0-.82,1.54S102.41,16.65,103.14,16.69Z"></path><path d="M152.22,13.49l.73-.72a.61.61,0,0,1,.91.09,20.84,20.84,0,0,1,2.6,4.76h44.27v2.47H154.88a2.22,2.22,0,0,1-.18-.55c-.4-1.2-1.42-4.08-2.48-5.2A.6.6,0,0,1,152.22,13.49Z"></path><path d="M196.86,16.69H156.58s-.52-1.63-.81-1.75h1.1s4.07-5.38,4.2-5.54,2.72,5.49,3.29,5.7h4.32s6.19-7.49,6.48-7.7l3.33,7.45h3.63s8.75-8.5,9.08-9.38a88.3,88.3,0,0,1,2,9.18l3.21.08a7.19,7.19,0,0,1,.82,1.54S197.59,16.65,196.86,16.69Z"></path><path d="M151.54,15.56s-1-1-1.59-1-3.57,2.77-3.88,5.57H148S150.13,16.41,151.54,15.56Z"></path><path d="M152.05,16.2A29.31,29.31,0,0,0,149,20.09h4.74S153.08,16.81,152.05,16.2Z"></path></svg>
