<svg id="Layer_1" data-name="Layer 1" xmlns="http://www.w3.org/2000/svg" viewBox="0 0 100 100"><title>icon_cardset_rumble</title><path d="M70.34,59.59c-4-14.4,1.11-28.05,3.46-41.89C67.22,15.16,61,14.3,54.36,15.6c-3.68.72-7.09,1-7.75,1.9-.87,1.14-2.62,6.6-2.32,10.83.08,1.17,2.21,3.75,2.47,4.9-.57.12-2.84-1.2-3.4-1.08-.9-4.5-1.79-9-2.85-14.35l-18,5.66c3.81,10.41,7.09,20.65,5.32,30.6-1.2,6.76-1.61,4.82,3.27,7.18,2.69,1.31,5.85,4.6,5.92,7.06.16,5.79,3.56,7,7.76,7.26A32.64,32.64,0,0,0,55,74.45c1.26-.33,2.84-2.63,2.82-4a6.7,6.7,0,0,1,3.81-6.62C64.39,62.36,67.25,61.09,70.34,59.59Zm-28.4-1.32c-.36.34-3.75,1-4.94.32-2.72-1.56-3.55-4.27-1.89-8.22l7.07,6.06A1.73,1.73,0,0,1,41.94,58.27Zm9.16,8s-4.74-.1-5.36,0-.79-.91-.79-.91c-.31-3.63,1.61-5,1.61-5,.63-.69,3.23,2.72,4.13,4S51.1,66.29,51.1,66.29Zm4.39-7.12c-2.3.09-4.7-2.56-7.06-4,.13-.54.27-1.09.41-1.63,3.46-2,6.85-4.09,10.44-5.82.77-.37,3,.43,3.23,1.13.66,2,1.6,5.06.66,6C61.21,57,58.17,59.07,55.49,59.17Z"></path><path d="M93.27,64c-.85-4.8-2.3-9.53-8-11.85,0,2.54.11,4.45,0,6.33-.39,5.79-6.68,10.23-10.88,7-5.33-4-6.23-3.13-12.5,1.94-2.19,1.77,0,8.78,3,11.47,4.77,4.26,14.14,5.36,20.06,2.34C90.43,78.49,94.44,70.65,93.27,64Z"></path><path d="M26.34,62.73c-7.42,9.1-10.8,8.56-16.6-2.64C6.09,63.63,5.51,69.86,8.22,76.4c2.23,5.4,7.74,9,13.2,8.57,5.12-.39,10.89-5.13,12.29-10.1C35.61,68.11,33.39,64.46,26.34,62.73Z"></path></svg>
