<svg id="Layer_1" data-name="Layer 1" xmlns="http://www.w3.org/2000/svg" viewBox="0 0 100 100"><title>icon_cardset_oldgods</title><path d="M56.24,68.22l3.35-2.51a.91.91,0,0,1,.83-.14l2.32.77a.92.92,0,0,0,.83-.14l6-4.51a.92.92,0,0,0,.33-1l-.65-2.24a.91.91,0,0,1,.19-.85c.66-.77,1.37-1.65,2.07-2.56a.9.9,0,0,1,.63-.35l3.16-.34a.9.9,0,0,0,.68-.44l3.23-5.34a.9.9,0,0,0,0-1L77.9,45.53a.86.86,0,0,1-.11-.71c.36-1.37.72-3,1-4.66a.85.85,0,0,1,.41-.6L82,37.86a.91.91,0,0,0,.44-.77v-5a.9.9,0,0,0-.7-.88L80.58,31a.93.93,0,0,1-.7-.82c-.12-1.53-.35-3.42-.6-5.32a.89.89,0,0,1,.53-.95l1-.48a.9.9,0,0,0,.52-1L80.25,17a.9.9,0,0,0-.75-.71l-1.33-.21a.89.89,0,0,1-.64-.46c-2.9-5.14-9.36-9-16.37-9.37-7.4-.41-15.91,3.85-18,9.32s.3,8.52.3,8.52S46.36,28,48,21.68a9.64,9.64,0,0,1,7.63-7.08h.14C69,14.21,68.36,23.51,67.85,27a47,47,0,0,1-6.18,15.61c-3.24,5-13.58,13-15.51,14.3s-7.7,3.85-11.86,2.43-3.34-5.78.51-6.69c3.13-.74,6.73,1.93,8,3a.9.9,0,0,0,1,.11c6.54-3.32,11.1-9.44,12.55-11.55a.91.91,0,0,0-.24-1.26C45.43,35.37,36,35.27,29,37.19a.93.93,0,0,1-.79-.16l-1.79-1.4a.91.91,0,0,0-1-.08l-6.31,3.36a.93.93,0,0,0-.47,1L19,41.57a.91.91,0,0,1-.31.83,13.31,13.31,0,0,0-2.4,2.78.91.91,0,0,1-.76.42H14.32a.89.89,0,0,0-.67.3,9.62,9.62,0,0,0-2.05,3.66c-.53,1.82.36,3.94.84,4.88a.92.92,0,0,0,.81.49h0a.92.92,0,0,1,.91.82,22.27,22.27,0,0,0,.81,4,1,1,0,0,1-.08.72l-1.54,2.63a.9.9,0,0,0,.1,1.06L19,70.52a.9.9,0,0,0,.9.29L23.37,70a1,1,0,0,1,.78.17c1.41,1.1,2.93,2.22,4.25,3a.87.87,0,0,1,.42.62l.33,2.12a.9.9,0,0,0,.56.7,41.85,41.85,0,0,0,4.49,1.53c2,.51,4.06-.1,4.66-.81a5.74,5.74,0,0,0,.72-2,.93.93,0,0,1,.88-.71c1.9,0,3.66-.1,4.88-.15a.92.92,0,0,1,.74.33l1,1.28a.92.92,0,0,0,.93.3c.76-.19,2-.52,2.38-.66s4-2.61,5.25-3.46a.9.9,0,0,0,.39-.81c0-.55-.1-1.46-.18-2.42A.92.92,0,0,1,56.24,68.22Z"></path><path d="M82.45,73.78c-2.72-5.26-7.72-13-8.74-14.52a.63.63,0,0,0-.52-.28h-.84a.64.64,0,0,0-.63.54l-.49,3.1A.6.6,0,0,1,71,63L65,68.77a.64.64,0,0,1-.61.15l-2.55-.72a.63.63,0,0,0-.6.15l-3.09,2.91a.63.63,0,0,0-.2.46v1.67a.65.65,0,0,1-.35.57l-1.67.83a.61.61,0,0,0-.22.94C57,77.44,60.53,83,60.75,93.12a.63.63,0,0,0,.63.63H87.93a.64.64,0,0,0,.62-.78C87.82,89.94,85.06,78.83,82.45,73.78Z"></path></svg>
