<svg id="Layer_1" data-name="Layer 1" xmlns="http://www.w3.org/2000/svg" viewBox="0 0 80 80"><path d="M5.79,24.28a28,28,0,0,0,12.36-5.44c6.27-4.74,13.63-5.51,15.49-5.25s5.37,1.54,5.57,4.1l.19,20.53s0,1.71.46,1.8c0,0,.26-.15.4-1.87s.48-20.85.48-20.85,1-3.85,6.27-4.41,10,2.81,11,3.45,9.22,6.53,13.5,7.88c0,0,1.73.64,1.8,1.4l-5.32,7.49,5.32-5.18v4.61L61.61,48.73a48.35,48.35,0,0,1-8-2.37A47.53,47.53,0,0,1,47,42.71c-1.28-.83-3.46.26-3.46,1.67h-6a2.51,2.51,0,0,0-2.37-1.67c-1.73.13-4.1,2.18-6.79,3.4A66.89,66.89,0,0,1,18,49.56L6.11,32.6v-3l5.64,6.66-.13-1L5.79,27.74,6.31,27A9.64,9.64,0,0,0,5.79,24.28Z"></path><path d="M34.24,45.8l-.69,21.48a.33.33,0,0,0,.55.25L40,62.08a.34.34,0,0,1,.45,0l6,5.46a.33.33,0,0,0,.55-.26L45.92,45.8a.32.32,0,0,0-.33-.31h-11A.34.34,0,0,0,34.24,45.8Z"></path><path d="M4.9,32.22l-.36.83a.32.32,0,0,0,0,.14v3.18a.35.35,0,0,0,.07.2L16.73,54a.34.34,0,0,0,.37.14l15.86-4a.35.35,0,0,0,.27-.35V47.23a.36.36,0,0,0-.45-.34l-14.93,4a.36.36,0,0,1-.38-.14L5.38,33.32a.3.3,0,0,1-.06-.18l0-.92Z"></path><path d="M47.48,47.56l.5,2.75a.51.51,0,0,0,.4.42L62.48,54a.53.53,0,0,0,.55-.2l12.35-16.6a.56.56,0,0,0,.11-.35L75.26,33a.54.54,0,0,0-.28-.44l-.7-.37,0,.64a.47.47,0,0,1-.1.34l-12,17a.53.53,0,0,1-.56.21L48.13,47A.53.53,0,0,0,47.48,47.56Z"></path></svg>
