<svg id="Layer_1" data-name="Layer 1" xmlns="http://www.w3.org/2000/svg" viewBox="0 0 100 100"><title>icon_cardset_karazhan</title><rect x="21.27" y="75.36" width="57.47" height="14.07" rx="2.58"></rect><path d="M35.73,34.94h29c6.74-.2,7.34-5.75,7.34-5.75V13.54a2.67,2.67,0,0,0-2.58-3H64.76l-.07,6.93H57.63V10.57H42.87V17.5H35.81l-.08-6.93H31a2.67,2.67,0,0,0-2.58,3V29.19S29,34.74,35.73,34.94Z"></path><path d="M72.1,69.22c-.8-.39-1.69-1.09-4.07-4.26S65,52.58,65,52.58V37.12H35.53V52.58S34.84,61.79,32.46,65s-3.27,3.87-4.06,4.26v3.67H72.1ZM54.46,60.3H45.54V52.08L50,46.63l4.46,5.45Z"></path></svg>
