<svg xmlns="http://www.w3.org/2000/svg" viewBox="0 0 100 100"><path d="M216.91,23.69h-6.08a121.53,121.53,0,0,0-30,3.76l-13.14,3.34a121.57,121.57,0,0,0-23,8.39l-17.42,8.43a121.51,121.51,0,0,0-21.71,13.47l-31,24.08A88.56,88.56,0,0,0,63.07,95.79L40.35,121a9,9,0,0,1-12.87.53l-.35-.33a19.31,19.31,0,0,1-6-16L23,87a.85.85,0,0,0-1.39-.73l-5.2,4.35a7.38,7.38,0,0,0-2.07,2.81c-2.22,5.36-8.82,22.66-9.19,39.49-.34,15.71,10.05,25.33,14.73,28.86a1.57,1.57,0,0,0,2.48-.92c.74-3.36,3.52-9,13.84-9.66,8.8-.53,11.49,9.07,12.23,16.89a31.89,31.89,0,0,1-3,16.65c-2.79,5.89-7.19,14.25-11.89,19.74-5.67,6.61-11.22,16.6-13.93,21.75a1.42,1.42,0,0,0,1.76,2,204.91,204.91,0,0,1,22.52-7c10.53-2.6,17.72-.3,20.79,1.09a.92.92,0,0,0,1.28-1c-.7-3.64-2-11.78-1.38-17.92.88-8.14,7.05-23.56,30-31,19.93-6.52,78.21,25.82,93,34.32a.68.68,0,0,0,.85-1c-47.92-55.9-92.29-68.89-100.28-70.85a.2.2,0,0,1,0-.39c34.67-2.2,70.42,27.84,75.57,32.34.12.11.28,0,.21-.18a24.44,24.44,0,0,1-2.7-9,21.93,21.93,0,0,1,12.7-22.18c22.26-10.24,55.59-7.44,55.59-7.44,4-.22,1.32-3.3,1.32-3.3-44.27-17.28-98.57-21.12-108.82-21.71a.2.2,0,0,1,0-.39c23.25-3.77,72.29-1.46,72.29-1.46l-1.4-1.34a17.47,17.47,0,0,1-4.6-7.3L187.16,89a17.77,17.77,0,0,1-.79-3.82L186,81.21a17.59,17.59,0,0,1,.76-7l1.29-4a17.65,17.65,0,0,1,10.36-11l12.78-5a.85.85,0,0,0-.09-1.62l-12.27-3.22a1.69,1.69,0,0,1-.79-2.82l3.2-3.29a14.88,14.88,0,0,1,5.84-3.71l4.38-1.5a79.72,79.72,0,0,1,14.34-3.47l16.29-2.37A5.6,5.6,0,0,0,246.73,28l.15-.58A121.6,121.6,0,0,0,216.91,23.69ZM134.37,80.28h-9.6l-.37-.92a3.07,3.07,0,0,1,.87-3.48l.27-.23a3.33,3.33,0,0,1,3.45-.52l5.38,2.29ZM153.06,59.4,144.43,66a3.05,3.05,0,0,1-3.9-.17L138,63.54a5.08,5.08,0,0,0-4-1.3l-4.11.43a3.43,3.43,0,0,1,2.55-3.32l19-5a2.93,2.93,0,0,1,3.36,1.49h0A4.52,4.52,0,0,1,153.06,59.4Z" transform="translate(10 10) scale(0.35)"></path></svg>
