<svg id="Layer_1" data-name="Layer 1" xmlns="http://www.w3.org/2000/svg" viewBox="0 0 100 100"><title>icon_cardset_explores</title><path d="M28.92,31.06a54.57,54.57,0,0,0,9.94-3.25,64.84,64.84,0,0,1,22.7-5.47s1.52-.47-2.52-.63-10.46.26-15.4,2.42-9.59,4-11.59,4.19-3.13-.37-4.71,0c0,0-2.46,1.06-2.78,1.9S27.35,31.22,28.92,31.06Z"></path><path d="M29.86,56.28h-.1S29.81,56.37,29.86,56.28Z"></path><path d="M95.14,41.73C93.61,38.58,88.52,38,78.9,44A22.11,22.11,0,0,1,73,45.73c-3.26.42-8.41,2-17,7.62S39,62.91,32.5,63.28s-8.83-2.68-7.57-7.2a11.05,11.05,0,0,1,.91-1.62,3.08,3.08,0,0,0,.61,1c.79.79,1.68-1.89,1.79-2.84S29.92,52.3,30,54.5a4.87,4.87,0,0,1-.11,1.78c.77-.08,6-.68,6.68-1.36V50.51a1.61,1.61,0,0,1,1.53.84,9.91,9.91,0,0,1,1,2.94s6.25-1.84,8.14-3.15V46.88A3.92,3.92,0,0,1,49,48.41a16,16,0,0,1,.94,2.05l9.15-4.52-1.21-3.73a16.93,16.93,0,0,1,3.63,2.41S69,41.31,72.12,41.94c0,0-8.41-16.45-8.83-19.07,0,0-11.3,1.73-18.92,4.78S36,31.38,32.6,32.12s-6.67-.16-8.77.15c0,0-2.68.84-1.63,2.42s2,3.05,2,4.26V51s1.16.16,1.16.95a6.73,6.73,0,0,0,.17,1.36C21.59,54.75,5.86,60.82,4.43,67.85c-1.63,8,17.08,10.67,19.66,10.46s11.82-1.42,19.1-5.26S66.55,56.6,68.44,54.82,82.53,43.36,87.89,41.73s5.62,2.37,5.62,2.37.37,3.36-2.58,4c0,0,2.11-3,.21-4.1s-8.88,2-19,9.83c0,0,12.88-.37,17.82-2.63S96.66,44.89,95.14,41.73Z"></path></svg>
