<svg id="Layer_1" data-name="Layer 1" xmlns="http://www.w3.org/2000/svg" viewBox="0 0 100 100"><title>icon_cardset_goblinsvsgnomes</title><path d="M71.64,50A21.64,21.64,0,1,0,50,71.64,21.64,21.64,0,0,0,71.64,50ZM50,59.52A9.52,9.52,0,1,1,59.52,50,9.52,9.52,0,0,1,50,59.52Z"></path><path d="M88.56,51.88,87,37a1.14,1.14,0,0,0-1.25-1l-8.58.93a30.19,30.19,0,0,0-4.42-6.67l4.47-6a1.13,1.13,0,0,0-.23-1.59l-12-8.94a1.13,1.13,0,0,0-1.59.24L58.05,21a30.09,30.09,0,0,0-8-1.1c-.35,0-.69,0-1,0l-2.74-7.72a1.12,1.12,0,0,0-1.44-.69l-14.14,5A1.14,1.14,0,0,0,30,18l2.64,7.46a30.41,30.41,0,0,0-6.41,6.15l-7.57-3a1.14,1.14,0,0,0-1.48.63L11.52,43.07a1.13,1.13,0,0,0,.62,1.48L20,47.71c-.06.76-.1,1.52-.1,2.29a30.47,30.47,0,0,0,.93,7.45l-7.26,4.37a1.14,1.14,0,0,0-.38,1.56l7.74,12.85a1.14,1.14,0,0,0,1.56.39l7.24-4.37a30.07,30.07,0,0,0,7.06,4.81l-.48,9.57a1.14,1.14,0,0,0,1.08,1.19l15,.74a1.13,1.13,0,0,0,1.19-1.08l.38-7.63a29.83,29.83,0,0,0,11.64-4.06l6,5.53a1.15,1.15,0,0,0,1.61-.06l10.19-11a1.13,1.13,0,0,0-.06-1.6L77.17,63a30,30,0,0,0,2.68-9l7.7-.84A1.12,1.12,0,0,0,88.56,51.88ZM25.6,50A24.4,24.4,0,1,1,50,74.4,24.41,24.41,0,0,1,25.6,50Z"></path></svg>
