<svg id="Layer_1" xmlns="http://www.w3.org/2000/svg" viewBox="0 0 68.97 67.99"><path d="m10.75,5.35l7,5.54c.44.26.59.83.32,1.27,0,0,0,0,0,0-.59,1.6-.91,3.29-.95,5,.16,1,1.27,3.38,1.07,4.12l3.6-1s4-2.7,5.3-3l2.3-5.69c-.81-1.07-1.71-2.07-2.68-3-1.25-.78-5.47-3.27-5.47-3.27l-10.49.02Z"></path><path d="m47.43,17.78l.39,3.52c1.78,1.6,3.04,3.69,3.64,6l4,2.39,1-.3c.95-.96,1.98-1.84,3.08-2.62.8-.37,4.2-6.21,4.2-6.21v-6.22l-1.19.3-4.35,4.79-5.62-1.65h-5.15Z"></path><path d="m36.67,23.7s-7.52,9.81-7.28,12.14v1.72s1.9,6.81,2.13,7.11.64,0,.64,0l4.51-5.16s1.1-8.32,1.42-9.22c0,0-.79-6.51-1.42-6.59Z"></path><path d="m46.95,46.32c-2.1,2.57-5,4.36-8.23,5.09.21,1.55.55,3.08,1,4.57.4.68,5,4.87,5,4.87,1.52.17,3.02.42,4.51.75,1.26.38,5.3,1.12,5.3,1.12-.49-1.09-1.1-2.12-1.82-3.07-1.02-1.28-1.97-2.62-2.85-4l1.43-4.27-.8-5.54c-1.16.31-2.34.47-3.54.48Z"></path><path d="m5.17,54.3s2.54-4,4.75-4.91c0,0,4.67.08,6.73,0,1.51-.11,3-.41,4.43-.9v-1.79s-3.33-3.6-3.48-5.25l-5.07-2.39c-.42-.13-.87-.01-1.18.3-.4.52-5.23,6.51-5.23,6.51,0,0-1.5,6.82-.95,8.43Z"></path><path d="m65.79,37l-5.86-4-9.73-3.75s-1.51-4.86-4.51-7.56l-.87-9.29-2.77-4.72,4.55-7.68s-8,2.62-8.9,3.07-4.67,5.47-4.67,5.47l-4.12,9.89s-3.8,1.42-5.54,3.56l-10,2.58c-2.09.85-4.03,2.02-5.77,3.45,0,0-6.25-1.88-7.6-3.6v1.2s1.82,3.82,1.74,5c0,0,2.69,2.47,4.43,4.12s6.86,2.47,6.86,2.47l5.64,2.62s2.58,5.17,4.61,6l.85,10.26,3.25,4-.32.9-2,7c.65-.16,1.27-.44,1.82-.83.79-.6,5.85-3.67,6.81-3.67,0,0,2.85-5.16,3.08-5.69l-.07-8s4.43-.23,9.85-5.32c0,0,8.5-.45,10.32-1.05l6.1-2,6,2.32-3.18-6.75Zm-17.65.53c-1.72,4.14-4.9,7.51-8.94,9.47-2,1-6.65,1.27-9.1,1s-7.36-5.09-9-8.24-1-9.66-1-9.66l1.64-2.69c2.22-3.6,2.61-3.67,6.09-6.15s9.66-1.93,9.66-1.93c10,3.13,10.84,10.32,10.84,10.32.68,3.11-.19,7.91-.19,7.91v-.03Z"></path></svg>
