<svg id="Layer_1" data-name="Layer 1" xmlns="http://www.w3.org/2000/svg" viewBox="0 0 100 100"><title>icon_cardset_blackrock</title><path d="M55.42,57.51l-22.09-21s-2-1.63-3.46,1.24S7.45,75.05,7.45,75.05,5.77,79.1,9,79H45.49L34.72,66.35s-.6-.39,1.18-1.28S55.42,57.51,55.42,57.51Z"></path><path d="M38.93,39.45l21.13,15.8a1,1,0,0,0,1,.14l8-2.88a1,1,0,0,0,.57-1.41L55,21.57A1,1,0,0,0,54,21H49.91a1,1,0,0,0-.87.48L38.67,38.09A1,1,0,0,0,38.93,39.45Z"></path><path d="M75.94,48.4a1,1,0,0,1,1.68.18l15,27.36s1.48,3-1.49,3.06h-11a1,1,0,0,1-.88-.49l-7.71-12.6a1,1,0,0,0-1.76,0l-7.71,12.6a1,1,0,0,1-.88.49H53.39a1,1,0,0,1-.69-.27L40.41,67.58a1,1,0,0,1,.32-1.72L70.34,54.69a1,1,0,0,0,.41-.29Z"></path></svg>
