<svg id="Layer_1" data-name="Layer 1" xmlns="http://www.w3.org/2000/svg" viewBox="0 0 100 100"><title>icon_cardset_grandtournment</title><path d="M40.8,24.44a42.1,42.1,0,0,1-9.36,3l-4.31.21S27,38.62,28.65,47h21V23.1C48.6,23.1,44,23,40.8,24.44Z"></path><path d="M49.69,47V75.18a2.44,2.44,0,0,1,.28.14c8.63-3.86,15.75-14.38,19.44-22.18A27.33,27.33,0,0,0,71.29,47Z"></path><path d="M86.15,16.34H79.47c-5,0-9.73-1.29-15.57-4S50,9.87,50,9.87s-8.06-.24-13.9,2.47-10.52,4-15.57,4H13.85s-.46,28.74,5.38,41.08S36.35,84,50,90.13C63.65,84,74.93,69.76,80.77,57.42S86.15,16.34,86.15,16.34ZM71.55,53.49c-4.09,8.64-12,20.3-21.55,24.58-9.56-4.28-17.46-15.94-21.55-24.58s-3.77-27.94-3.77-27.94h4.68c3.54,0,6.82-1.74,10.91-3.64S50,20.19,50,20.19s5.64-.17,9.73,1.72,7.37,3.64,10.91,3.64h4.68S75.64,44.85,71.55,53.49Z"></path></svg>
