<svg id="Layer_1" xmlns="http://www.w3.org/2000/svg" viewBox="0 0 53.4 68.77"><path d="m27.9,0c-3.39,2.18-6.62,4.61-9.65,7.26,0,0-6.52-.48-7.65-1.28-.16,2.57-.16,5.16,0,7.73,0,0-6.37,6.62-8,8.37,0,0,7.57,6.45,6.69,10.12-1.24.08-2.48-.05-3.67-.4C4.11,31.24.13,27.74.05,27.02s-.88,9.32,8.92,15.94c0,0,2.07-3.75,5.5-2.15s6.13,4.8,5.58,9-5.18,2.78-5.58,1.9,2.39,12.19,8.37,17.06c0,0,3-9.17,2.94-16s-2-11.56-4.3-14.82-6.49-11.77-2.91-17.7c3.58-5.93,9.65-4.87,11.64-4.39s6.85,2.87,7.25,10.32-5.42,12.67-6.46,14.43-5.27,11.03,1.2,22.57c0,0,4.62-4.39,7.41-14.43,0,0-5.9,2.08-4.7-3.34s8.76-7.57,10.6-2.71c0,0,6.37-3.51,7.89-13.63,0,0-5.58,5.34-8.37,3.27s.08-6,4.86-7.33c0,0-2.63-6.38-4.78-9.17s1.62-6.51,1.62-6.51c-2.26-.4-4.59-.23-6.77.48,0,0-8.88-8.93-12.06-9.81Z"></path><path d="m27.34,17.7s-5.18,6.21-6.85,7.09l6.85,8,6.39-7.55s-5.91-6.91-6.39-7.54Z"></path></svg>
