<svg id="Layer_1" data-name="Layer 1" xmlns="http://www.w3.org/2000/svg" viewBox="0 0 100 100"><title>icon_cardset_</title><path d="M83.88,56.12s4.53-3.43,6.35-5.84,2.27-5.69.52-6.42-4.6,2-6.65,3.21-2.92.73-3.79-.81S77.1,31.72,77.1,31.72s-5.41-8.3-6.43-9.7a1.18,1.18,0,0,0-2,0s-5.11,6.14-6.5,8.4S60,31.3,60,31.3s-.65-6.42-1.38-8-1.17-2.63-1.17-2.63c-2.92-1.9-7.59-8.32-7.59-8.32-1.32,2.34-9.06,8.91-9.06,9.49s-1.6,9.49-1.6,9.49c-1,.15-1.53-1.39-1.53-1.39L31,21.52a2.46,2.46,0,0,0-3.29,1.68c-1,2.62-5.11,8.39-5.11,8.39-.94,2.7-2.11,15.33-4,16s-5.11-2.41-6.64-3.36-3.14-1.61-3.73,1.46,5.7,9.34,7.38,10.51S17,58,17,58L14,69l-3.43.22v7.37l3.43.51s8.83,7.74,10.22,9.34a1.82,1.82,0,0,0,2.7.44l10.29-8.54H63.48a1,1,0,0,1,.68.28l.92.93C67.55,82,73,87.41,73.3,87.58a1.68,1.68,0,0,0,1.09,0c.44-.65,6.36-5.55,6.36-5.55l5-4.87a11,11,0,0,1,2.41,0c1.24.15,1-1,1-1a57.43,57.43,0,0,0,.3-6.49c-.22-.73-3.73-.88-3.73-.88s-1.68-7.59-2.63-9.63A2.31,2.31,0,0,1,83.88,56.12ZM62.81,61.33s-1.07,1.17.1,1.75,1.48,1.72.58,3.11A9.72,9.72,0,0,1,62,67.85a2.73,2.73,0,0,0-2.24-1.17c-2-.18-2,1.56-.87,2.34s1.56,4.38,1.36,4.86-4.48,0-4.48,0,.1-4.57-2-4.47-1.95,4.18-1.95,4.18L41.59,73.3s-.39-2.34.59-3.5,1.07-3.7-.3-3.31a13.93,13.93,0,0,0-3,1.46,1.94,1.94,0,0,1-1.56-1c-.58-1-1.56-2.14-.49-2.53,0,0,1.56-1.65,1.66-2.43s-.39-1.75-1.66-2.82-4.38-5.26-2.92-10,5.26-10.32,13-11,11.48.39,15.47,3,5.07,8,5.26,11S65.24,59.77,62.81,61.33Z"></path><path d="M47.31,55.32,43,53.62a.54.54,0,0,0-.28,0c-.59,0-2.84.17-3.28,1.31-.51,1.31-.51,4.45,3.14,5.77s2.62.8,2.62.8,1.25.58,2.12-1.32.8-2.11,1.19-2.43S49.6,56.22,47.31,55.32Z"></path><path d="M53.69,55.56s-.93.51-.78,1.27a14.33,14.33,0,0,0,1.9,3.23,2.42,2.42,0,0,0,2.75,1,11.71,11.71,0,0,0,4.86-3.61,2.94,2.94,0,0,0-.85-3.57C60.26,53,56.48,53.54,53.69,55.56Z"></path><path d="M50.72,59.11s-2.9,4.16-2.78,6.65a1.25,1.25,0,0,0,1.39,1.55c1.7,0,4.19,0,4.19,0s.8-.19.95-.58S52.49,58.63,50.72,59.11Z"></path></svg>
