<svg viewBox="0 0 100 100" xmlns="http://www.w3.org/2000/svg"><path d="M28,30c-.13,2.13-.29,4-.33,5.84a6.43,6.43,0,0,0,1.88,5c1.87,1.83,3.51,1.78,5.13-.28,1-1.26,2-2.54,3-3.81a55.1,55.1,0,0,1,16.59-14.4c3.72-2.07,7.38-4.27,11.21-6.11a48.79,48.79,0,0,1,15.41-4.53c3.83-.47,7.71-.63,11.58-.75a19.81,19.81,0,0,1,4.42.68c.38.07.69.49,1,.74-.39.26-.75.66-1.17.74-1.43.27-2.92.28-4.32.63q-3.63.9-7.16,2.12a9.44,9.44,0,0,0-2.5,1.61,3.71,3.71,0,0,0-.65,1.12,11.93,11.93,0,0,0,1.14.41c1.19.29,2.39.55,3.58.84a6.19,6.19,0,0,1,1,.52,13.75,13.75,0,0,1-1.41.54c-2.19.51-4.37,1.15-6,2.83a6.46,6.46,0,0,0-1.52,2.86,9.48,9.48,0,0,0,1.75,7.85c.12.17.23.36.46.73a76.24,76.24,0,0,0-22.5.62c5.86.67,11.75,1.21,17.59,2a64.71,64.71,0,0,1,17,4.52l-.06.52a6.37,6.37,0,0,1-1.13.15,51.54,51.54,0,0,0-14.85,1.36,14.35,14.35,0,0,0-2.38.85c-3.6,1.51-4.36,3.08-3.73,7.22.16,1.07.58,2.1.76,3.27-3.43-2.66-6.71-5.49-10.75-7.12A34.53,34.53,0,0,0,48.53,46c1.14.42,2.28.87,3.43,1.26a45.79,45.79,0,0,1,15.81,9.24c3.67,3.21,7.24,6.54,10.82,9.85a20.55,20.55,0,0,1,1.66,1.93l-.29.42a6,6,0,0,1-1.22-.48,89.52,89.52,0,0,0-16.58-8.51,39.25,39.25,0,0,0-8.27-2.37A10.83,10.83,0,0,0,42,64.25a12.27,12.27,0,0,0-.54,8.82c-5.34-1.56-10.19-.16-15,2.06a7,7,0,0,1,1.79-3.82c1.45-1.88,3.15-3.57,4.5-5.52A16.27,16.27,0,0,0,36,56.47a6.78,6.78,0,0,0-1.81-4.6,3.17,3.17,0,0,0-5,.12,30.94,30.94,0,0,0-1.71,2.82c-4.52-4-5.32-9.12-4.58-14.68C23.39,36.27,24.42,32.59,28,30Zm33-7c.44.15.55.23.65.21a2.51,2.51,0,0,1,2.92,1.06.73.73,0,0,0,.69.23,33.76,33.76,0,0,0,3.63-2.37c.26-.21.24-1.06,0-1.46s-.89-.39-1.27-.28c-2,.57-3.88,1.23-5.81,1.89C61.58,22.42,61.39,22.71,61,23.05Zm-.09,6,1.94-.92a6.17,6.17,0,0,0-1.59-1,3,3,0,0,0-1.64.26,1,1,0,0,0-.22.86A9.14,9.14,0,0,0,60.9,29Z"></path><path d="M55.8,59.42c.78.14,1.38.21,2,.35a2.37,2.37,0,0,1,2,2c1,4.38,2.17,8.72,3.21,13.09.46,1.93,0,2.65-2,3.15L20.15,88.46c-1.89.49-2.72.06-3.23-1.87q-2.76-10.47-5.44-21C8.36,53.33,5.3,41,2.15,28.75c-.54-2.1-.43-3.9,1.47-5.21a6.62,6.62,0,0,1,2.19-1Q23.89,17.93,42,13.35A8,8,0,0,1,45,13.29,3.39,3.39,0,0,1,47.87,16c.62,2.26,1.22,4.52,1.77,6.8a1.23,1.23,0,0,1-.35,1c-.66.58-1.41,1.06-2.28,1.69-.43-1.65-.88-3.2-1.23-4.78a1.69,1.69,0,0,0-1.55-1.5,5.25,5.25,0,0,1-2.31-1.51,1.42,1.42,0,0,0-1.63-.57q-15.55,4-31.13,8A1.46,1.46,0,0,0,8,26.33a5.73,5.73,0,0,1-1.37,2.53A1.67,1.67,0,0,0,6,30.71Q10.39,48,14.76,65.34c1.35,5.32,2.72,10.64,4.06,16A1.79,1.79,0,0,0,20,82.83a3,3,0,0,1,1.46,1.24c.48.86,1.05.8,1.82.6q13-3.35,26-6.65c2.41-.62,4.82-1.28,7.24-1.88.63-.16,1-.35,1.08-1.09a2.89,2.89,0,0,1,.67-1.68,2.27,2.27,0,0,0,.42-2.52c-.95-3.57-1.84-7.15-2.76-10.72C55.89,60,55.87,59.77,55.8,59.42Z"></path><path d="M43.18,28.81c-.35-1.37-.64-2.76-1.08-4.09a3,3,0,0,0-1.05-1.16c-.32-.25-.88-.28-1.1-.58-.84-1.11-1.83-.73-2.87-.46-7.83,2-15.67,4-23.5,6-.42.1-.78.58-1.07,1s-.4,1-.75,1.27c-.84.7-.73,1.45-.5,2.37q5,19.35,9.92,38.72.7,2.73,1.43,5.46a2.68,2.68,0,0,0,3.18,1.92q13-3.28,25.89-6.61a2.73,2.73,0,0,0,1.83-3.16q-1.26-5-2.51-10c1.62-.88,2.11-.68,2.53,1,.84,3.27,1.71,6.54,2.5,9.83a3.65,3.65,0,0,1-.24,1.57c-.08.29-.43.53-.43.8,0,1.65-1.25,1.83-2.47,2.14Q38.71,78.35,24.54,82c-.74.2-1.33.26-1.69-.58a.89.89,0,0,0-.48-.49c-1.5-.44-1.63-1.73-1.94-3Q14.67,55.17,8.87,32.39a2.31,2.31,0,0,1,.61-2.68c.53-.46.64-1.36,1-2,.24-.41.6-.92,1-1q13.7-3.57,27.43-7a2.11,2.11,0,0,1,1.3.37c.9.48,1.75,1,2.6,1.59.3.2.69.44.78.73a23,23,0,0,1,1.18,4.56c.07.65-.79,1.39-1.24,2.08Z"></path></svg>
