<svg id="Layer_1" data-name="Layer 1" xmlns="http://www.w3.org/2000/svg" viewBox="0 0 100 100"><path d="M66.05,9a34.22,34.22,0,0,0-6.43,3.08S59,22.37,59,24.68c0,0-13.64,14.3-19.13,22.88l4.28,6.81s12,.53,15.51,7.63S61,73.49,57.35,76s-10.7,4.68-14.84,1.07-5.49-4.42-5-9,4.15-4.69,7.5-3.78,4.94,5.35,5,6.82,1.08,6.3,4.15.27-6.82-13-6.82-13-7.22-5.89-15.65-2.53-9.37,17-9.37,17-.89,12.45,14.89,13.64S55.62,85,55.62,85s7.22,5.48,9.49,6,6.42-6.3,6.42-6.3,4.42-9.35,3.79-9.75-6.7,6.82-6.7,6.82-2.27.4-3.07-.81a3.77,3.77,0,0,1,1.09-4.65c1.6-1.48,8-10.84,8.76-15.92s.21-12-11-12.71A39,39,0,0,0,51.77,50s-3.07,1.12-3.48-.62,3.08-4.14,3.08-4.14L71.69,30.53a11.67,11.67,0,0,1-5.75-9.77A107.28,107.28,0,0,1,66.05,9Z"></path></svg>
