<svg id="Layer_1" data-name="Layer 1" xmlns="http://www.w3.org/2000/svg" viewBox="0 0 100 100"><title>icon_cardset_hallofframe</title><path d="M92.85,48.88C90.58,47.55,79.39,41,76.26,38.69a.23.23,0,0,1-.08-.11,29,29,0,0,0-3.61-6.13.29.29,0,0,1,0-.24l2.78-9.87A.28.28,0,0,0,75,22L64.61,25.21a.24.24,0,0,1-.22,0,28.82,28.82,0,0,0-5.06-2.37.26.26,0,0,1-.14-.11L49.93,7.37a.28.28,0,0,0-.47,0L39.45,23a.28.28,0,0,1-.13.11,28,28,0,0,0-4.9,2.45.33.33,0,0,1-.24,0L24.17,22a.28.28,0,0,0-.36.34l2.83,10.14a.27.27,0,0,1,0,.23A28.7,28.7,0,0,0,23,39.18a.23.23,0,0,1-.1.12C18.93,42,9.25,47.65,7.15,48.88a.27.27,0,0,0,0,.47L22,58.14a.23.23,0,0,1,.12.15,28.58,28.58,0,0,0,3.17,7,.29.29,0,0,1,0,.22L22,77.14a.28.28,0,0,0,.36.34L33.08,73.7a.26.26,0,0,1,.24,0,28.41,28.41,0,0,0,6,3.17.28.28,0,0,1,.13.11l10,15.62a.28.28,0,0,0,.47,0l9.26-15.34a.26.26,0,0,1,.14-.11,28.49,28.49,0,0,0,6.58-3.34.26.26,0,0,1,.24,0L76.48,77a.28.28,0,0,0,.35-.34l-3-10.7a.24.24,0,0,1,0-.22,28.93,28.93,0,0,0,3.34-7,.29.29,0,0,1,.12-.15l15.54-9.22A.27.27,0,0,0,92.85,48.88ZM66.19,47.83c-.15,1.41-1,4.88-1,5.47a17.53,17.53,0,0,1-.3,2.51c-.22,1.47-1,1.62-1.18,2.87a4.92,4.92,0,0,1-2.21,3.18,10.09,10.09,0,0,0-2.73,2.66c-.08.37-5.69,3.32-7.38,3.39s-8.71.74-11.89-1.11-4.43-3.1-4.06-5.31c0,0,.52-1.92,2.59-.74a17.21,17.21,0,0,0,4.5,2.07c.74.07,4.57.07,5.61-.74s.44-1.18,1.92-1.25,2-.59,3.39-1.55a9.11,9.11,0,0,0,3.1-3.4,5.18,5.18,0,0,1,1.11-2.07c.59-.73.59-5.68.15-7.16s-1-1-1.55-2.06a26.92,26.92,0,0,0-1.11-2.51c-.52-.89-1.85-1.26-3.25-2.36s-5.31-1.7-6.57-.52-3.17,1.7-4.2,2.43a3.75,3.75,0,0,0-1.55,3.62c.22,1.55,1.47,4.36,2.87,5.09s2.07.54,3.47-1,1.11-2.3-.14-2.74a1.6,1.6,0,0,1,1.84-2.14c2.22.22,4.87,2.36,5.39,3.91s-1.18,7.46-5.76,8.19-6.57,0-8.93-1.55-5.68-6.42-5.68-7.3-.15-5.32.66-7.16,4.95-8.05,10.26-9.23a2.86,2.86,0,0,1,1.55-.74c.89-.07,1,.67,2.22.81s2.28-.89,2.73-.81,1,.67,2.06,1,4.06.73,5.76,2.14,2.81,2.14,3.84,3.76.66,2.14,1.7,2.88a8.19,8.19,0,0,1,2.36,3.31A16.13,16.13,0,0,1,66.19,47.83Z"></path></svg>
