<svg data-name="Layer 1" xmlns="http://www.w3.org/2000/svg" viewBox="0 0 300 82"><path d="M220.7,56.12H79.31l-.14-.8c0-.2-1-4.82-5.19-6.09l-.7-.2V28.51l.7-.21c4.27-1.27,5.18-6,5.18-6.07l.15-.81H220.7l.14.81c0,.19.95,4.8,5.19,6.07l.69.21V49l-.69.2c-4.27,1.28-5.18,6-5.19,6.08Zm-139.81-2H219.12a10,10,0,0,1,5.65-6.56V29.94a10,10,0,0,1-5.65-6.56H80.89a10,10,0,0,1-5.65,6.56V47.6A10,10,0,0,1,80.89,54.16Z"></path><path d="M218,52.37H82L81.88,52a8.91,8.91,0,0,0-4.79-5.2l-.3-.12V30.84l.3-.12a8.92,8.92,0,0,0,4.79-5.2l.1-.35H218l.11.35a8.93,8.93,0,0,0,4.79,5.2l.3.12V46.7l-.3.12a8.89,8.89,0,0,0-4.79,5.2Zm-135.33-1H217.31a9.84,9.84,0,0,1,4.93-5.34V31.49a9.84,9.84,0,0,1-4.93-5.34H82.7a9.83,9.83,0,0,1-4.94,5.34V46.05A9.83,9.83,0,0,1,82.7,51.39Z"></path><path d="M64.59,14.89l-5.93,8.3s-.85,1.16,0,1.84S71.18,38.22,71.18,38.22V26.06s3.24-.18,4.4-2a9,9,0,0,0,1.59-4.58h21.2l-3.36-4L81,12.38a26.61,26.61,0,0,0-3.18,0C76.86,12.5,64.59,14.89,64.59,14.89Z"></path><path d="M71,40.32,50.44,17.51s-1.47-.81-3.91.41-6.76,5.19-4.89,10.86l4.81,6.41s0,3.17,2.93,3.58c0,0-2-6.11,1.95-7.49,0,0,.33.65-.08.89s-2.12,3.1-.73,6.6l4.56,5.37s.16,3.91,3.09,4.16c0,0-1-6.11,2.53-7.09a.86.86,0,0,1-.25,1.22c-.73.49-1.62,4.73-1.22,6.52l5.21,6.6s0,3.82,2.86,4c0,0-.9-6.35,1.79-7.66,0,0,1.38-.32.49,1.06a13.33,13.33,0,0,0-1.55,7l3.66,4.24a6.74,6.74,0,0,0,3.1.73,7.38,7.38,0,0,0,5.29-2.2c1.06-1,1-1,1.79-.81s14.26-4.81,14.26-4.81H89.61l-7.09,2.85s-1.3-.73-2.19-.24c0,0-3.18,2.36-4.48,2.44s-4.48.92-3.34-4.66c0,0,.74-4.29,4.28-3.72,0,0-1.84-3.18-3.88-3.43L71,49.91Z"></path><path d="M63,14.46l-5.38,8.25s-.61.12-.79,0S52.37,18,52.37,18s-.55-1.34,1.34-1.77,8.56-1.77,8.56-1.77S63.14,14.25,63,14.46Z"></path><path d="M82.15,11.53l12.58,2.83s.83,0,.58-.33-3.94-3.61-4.9-4.47a.64.64,0,0,0-.53-.15l-8,1.26S80.68,11,82.15,11.53Z"></path><path d="M234.92,14.89l5.92,8.3s.86,1.16,0,1.84-12.52,13.19-12.52,13.19V26.06s-3.24-.18-4.4-2a9,9,0,0,1-1.59-4.58H201.14l3.36-4,14-3.06a26.61,26.61,0,0,1,3.18,0C222.64,12.5,234.92,14.89,234.92,14.89Z"></path><path d="M228.46,40.32l20.61-22.81s1.46-.81,3.91.41,6.75,5.19,4.88,10.86l-4.8,6.41s0,3.17-2.94,3.58c0,0,2-6.11-2-7.49,0,0-.33.65.08.89s2.12,3.1.73,6.6l-4.56,5.37s-.16,3.91-3.09,4.16c0,0,1-6.11-2.53-7.09a.87.87,0,0,0,.25,1.22c.73.49,1.63,4.73,1.22,6.52l-5.21,6.6s0,3.82-2.85,4c0,0,.89-6.35-1.79-7.66,0,0-1.39-.32-.49,1.06a13.34,13.34,0,0,1,1.54,7l-3.66,4.24a6.74,6.74,0,0,1-3.1.73,7.38,7.38,0,0,1-5.29-2.2c-1.06-1-1-1-1.79-.81s-14.25-4.81-14.25-4.81h6.51L217,59.94a2.69,2.69,0,0,1,2.2-.24s3.17,2.36,4.48,2.44,4.47.92,3.33-4.66c0,0-.74-4.29-4.28-3.72,0,0,1.84-3.18,3.88-3.43l1.87-.42Z"></path><path d="M236.5,14.46l5.38,8.25s.61.12.79,0S247.13,18,247.13,18s.55-1.34-1.34-1.77-8.55-1.77-8.55-1.77S236.36,14.25,236.5,14.46Z"></path><path d="M217.35,11.53l-12.58,2.83s-.82,0-.58-.33,3.95-3.61,4.91-4.47a.61.61,0,0,1,.52-.15l8,1.26S218.82,11,217.35,11.53Z"></path><rect x="265.06" y="28.56" width="0.98" height="24.21" transform="translate(114.91 263.1) rotate(-64.6)"></rect><path d="M282,54.7a6.42,6.42,0,1,1,6.42-6.42A6.43,6.43,0,0,1,282,54.7Zm0-11.86a5.44,5.44,0,1,0,5.44,5.44A5.45,5.45,0,0,0,282,42.84Z"></path><path d="M250,4.57a27.7,27.7,0,0,0-19.45,8l1.46.63a26.34,26.34,0,1,1,5.12,42.2l-.84,1.21A27.81,27.81,0,1,0,250,4.57Z"></path><path d="M250.09,15.28A17.2,17.2,0,1,1,244,48.55l-3.65,2.63a21.1,21.1,0,1,0,.23-37.53l5.89,2A16.84,16.84,0,0,1,250.09,15.28Z"></path><path d="M49.47,4.57a27.7,27.7,0,0,1,19.45,8l-1.46.63a26.34,26.34,0,1,0-5.12,42.2l.84,1.21a27.81,27.81,0,1,1-13.71-52Z"></path><path d="M49.39,15.28A17.2,17.2,0,1,0,55.5,48.55l3.65,2.63a21.1,21.1,0,1,1-.23-37.53l-5.9,2A16.69,16.69,0,0,0,49.39,15.28Z"></path><path d="M24.44,50.38a15.5,15.5,0,1,1,15.5-15.49A15.52,15.52,0,0,1,24.44,50.38Zm0-30A14.52,14.52,0,1,0,39,34.89,14.54,14.54,0,0,0,24.44,20.37Z"></path><path d="M149.87,15.56a39.21,39.21,0,0,0-15.22,3.07h30.43A39.12,39.12,0,0,0,149.87,15.56Z"></path><path d="M98.77,18l.94,1.4h1.37a89.39,89.39,0,0,1,97.58,0h1l1.14-1.53a91.79,91.79,0,0,0-102,.13Z"></path><path d="M149.87.37A93.56,93.56,0,0,0,97.6,16.26l.55.81A92.94,92.94,0,0,1,201.44,17l.58-.78A93.5,93.5,0,0,0,149.87.37Z"></path><path d="M127.89,19.39h4.6v-.76h2.16a39.24,39.24,0,0,1,30.43,0h2.23v.76h4.53a41.64,41.64,0,0,0-43.95,0Z"></path><path d="M134.65,18.63c-.57.24-1.13.49-1.69.76h33.82c-.56-.27-1.13-.52-1.7-.76Z"></path><path d="M132.49,18.63v.76H133c.56-.27,1.12-.52,1.69-.76Z"></path><path d="M165.08,18.63c.57.24,1.14.49,1.7.76h.53v-.76Z"></path><path d="M254.62,9.84A21.33,21.33,0,0,1,253,7.17c-.34-.67-1.35-.08-1,.59s.61,1.12.95,1.66L249.48,9A5,5,0,0,0,250,7.48c.1-.74-1-1.06-1.13-.31A4.34,4.34,0,0,1,248,9.23c-.29.4.12.84.51.88l5.6.62A.6.6,0,0,0,254.62,9.84Z"></path><path d="M255.3,7.61c-.33-.68-1.34-.09-1,.59a10.28,10.28,0,0,1,.8,2.3c.16.74,1.29.43,1.13-.31A11.17,11.17,0,0,0,255.3,7.61Z"></path><path d="M263.87,15a2.4,2.4,0,0,0,.9-.23,4.13,4.13,0,0,1,1.26-.18.59.59,0,0,0,0-1.17,6,6,0,0,0-1.11.1c-.26,0-.57.22-.85.28-.26-.25-.5-.54-.74-.81-.44-.5-.17-.8.31-1.17s0-1.47-.59-1c-1,.79-1.6,1.8-.64,2.91C262.77,14.17,263.27,15,263.87,15Z"></path><path d="M267.53,14.83a3.16,3.16,0,0,0-2.37.87c-.54.53.29,1.35.83.83a2,2,0,0,1,1.54-.53C268.29,16.06,268.28,14.88,267.53,14.83Z"></path><path d="M270.09,22.15a1.25,1.25,0,0,1,1,0c.14.08.21.09.25.08a.52.52,0,0,0-.11.23c-.13.4-.4.74-.52,1.16a.6.6,0,0,0,.41.72,2.32,2.32,0,0,1,1.59,1c.36.66,1.38.07,1-.6a3,3,0,0,0-1.66-1.3c.33-.6.8-1.25.38-1.84a1.88,1.88,0,0,0-1.41-.66c.2-.24.42-.38.58-.18.46.6,1.29-.24.83-.83-1.09-1.4-2.58.41-3,1.41C269.24,21.73,269.56,22.32,270.09,22.15Z"></path><path d="M275.41,33.65a2.8,2.8,0,0,0-.37-.48,2.21,2.21,0,0,0-.57-2.22,5.56,5.56,0,0,1,.54-.42c.63-.41,0-1.43-.59-1a6,6,0,0,0-1.21,1,.59.59,0,0,0,.11.92,1.24,1.24,0,0,1,.63,1.23,4.63,4.63,0,0,0-.52.07c-.84.18-1.58.68-1.41,1.63.13.74,1.26.43,1.13-.31,0-.07.74-.21.77-.22l.2,0c-.06,0-.07,0,0,0a1.26,1.26,0,0,1,.28.33C274.8,34.88,275.82,34.29,275.41,33.65Z"></path><path d="M273.4,41.18a8.76,8.76,0,0,0-1.46-1,.59.59,0,0,0-.81.21c-.26.61-.57,1.21.08,1.69a.58.58,0,0,0,.8-.21.47.47,0,0,0,.08-.27,3.81,3.81,0,0,1,.5.37.57.57,0,0,0-.15.37v.12a.59.59,0,0,0,1.15.15,2.83,2.83,0,0,0,.22-.79A.83.83,0,0,0,273.4,41.18Z"></path><path d="M271.69,43.27a3.84,3.84,0,0,0-.83,1.08l-.18.29a4.14,4.14,0,0,0-.29-.55,8.53,8.53,0,0,0,.62-.83c.4-.64-.61-1.22-1-.59a6.82,6.82,0,0,1-.77,1,.59.59,0,0,0,0,.83,2.64,2.64,0,0,1,.64,1.59.6.6,0,0,0,1.1.3l.73-1.16a4.67,4.67,0,0,1,.6-.95C272.88,43.83,272.3,42.82,271.69,43.27Z"></path><path d="M264.61,50.17c-.11.36-.23.51-.62.34l-.16-.07c-.61-.25-1.06.8-.45,1.07l.14.06h0l.19.08a.59.59,0,0,0,.25.05,1,1,0,0,0,.23,0l-.71.46-.32.19a1,1,0,0,0-.59-.21,3,3,0,0,1-.68-.1l-.38-.14c-.62-.22-1.07.8-.45,1.07l.14.05h0l.12,0,.17.07.41.15c-.11.13-.23.24-.34.37l-.28,0-.83.11a.61.61,0,0,0-.59.58.6.6,0,0,0,.59.59l.91-.12a2.36,2.36,0,0,0,.79-.15,2,2,0,0,0,.67-.67.6.6,0,0,0,.41-.37s.53-.3.63-.37l.64-.4a6.73,6.73,0,0,0,1.3-.94c.66-.71.36-1.44-.21-2.09A.59.59,0,0,0,264.61,50.17Z"></path><path d="M255.84,55.22a.59.59,0,0,0-1.17,0c0,.46-1.1,1.13-1.5,1.25a2,2,0,0,1-.87.07A6.09,6.09,0,0,0,253.68,55c.39-.64-.62-1.23-1-.59a4.64,4.64,0,0,1-1.92,1.78.59.59,0,0,0,0,1,3.24,3.24,0,0,0,3,.31,3.76,3.76,0,0,0,1.93-1.74.49.49,0,0,0,.14-.39Z"></path><path d="M243.75,55.7a8.63,8.63,0,0,1-.75-.48c-.21-.14-.43-.27-.65-.39a5.43,5.43,0,0,0,1-.76c.56-.52-.27-1.35-.83-.83a4,4,0,0,1-1.86,1c-.61.14-.5.94,0,1.13a8.79,8.79,0,0,1,1.85,1,3.6,3.6,0,0,0,1.19.74,2.3,2.3,0,0,0,2.18-1C246.67,54.88,243.89,53.57,243.75,55.7Z"></path><path d="M240.89,11.35a6.6,6.6,0,0,1-1.14-.79c1.26-.28,3-.17,3.8.6.54.53,1.37-.3.83-.83C243,9,240,9,238.37,9.81a.59.59,0,0,0-.12.92,7.71,7.71,0,0,0,2,1.64C241,12.73,241.55,11.72,240.89,11.35Z"></path><path d="M182.07,11.82a14.91,14.91,0,0,0-4.51,1.4.51.51,0,0,0-.6,0,10,10,0,0,1-4,1.8,9.24,9.24,0,0,1-2.14-.24.59.59,0,0,0-.32,1.13,5.59,5.59,0,0,0,2.49.28c.11,0,.22,0,.33,0,0,.1-.09.2-.14.3-.26.57.43,1.23.92.71A14,14,0,0,1,182.38,13C183.13,12.84,182.81,11.71,182.07,11.82Z"></path><path d="M186.58,15.28a.59.59,0,0,0-.31-1.13,5.32,5.32,0,0,1-1.85.09,1,1,0,0,1-.58-.58.61.61,0,0,0-.72-.41c-2.13.33-5,1.05-6.3,2.92a.47.47,0,0,0-.5.06,2.83,2.83,0,0,0-.81.77.59.59,0,0,0,.41,1c2.28,0,2.73,1.4,4.72.28a.59.59,0,0,0-.14-1.07,12.82,12.82,0,0,1-1.89-.52,6.84,6.84,0,0,1,4.78-1.52l.23,0A3.5,3.5,0,0,0,186.58,15.28Z"></path><path d="M189.47,16.23a1.43,1.43,0,0,0-1.09.44l-2.2,1.9c-.45.39,0,1.13.57,1a5.24,5.24,0,0,0,3.5-2.49A.61.61,0,0,0,189.47,16.23Z"></path><path d="M167.4,12.07a22.16,22.16,0,0,1-2.82-.05h0a4.24,4.24,0,0,0-.61-.17A10.09,10.09,0,0,1,166,10.6a19.44,19.44,0,0,1,4.51.27l-.07.07c-.51.55.32,1.38.83.83a7.92,7.92,0,0,0,1.32-1.52.61.61,0,0,0-.09-.71c-1.14-1.45-3.3-1.09-4.83-.71a14.39,14.39,0,0,0-1.82.61h-.26a.56.56,0,0,0-.49.33A11.84,11.84,0,0,0,162,12c-.47.44,0,1.06.57,1a3.06,3.06,0,0,1,2.84,1,.61.61,0,0,0,.83,0l1.28-.75C168.12,13,168.13,12,167.4,12.07Z"></path><path d="M164.05,7.82c.58-.41.08-1.35-.5-1.06a.5.5,0,0,0-.71-.12,30.28,30.28,0,0,0-5.31,4.74c-.43.48.12,1.28.71.92a5.38,5.38,0,0,0,.86-.72c.34-.32.29-.34.79-.3a3.07,3.07,0,0,1,1,.36.62.62,0,0,0,.81-.21C162.26,10.34,163,8.57,164.05,7.82Z"></path><path d="M153.14,7.51c.15.11.08,0,0-.09v0a.57.57,0,0,0,0-.79,1.32,1.32,0,0,0-1.51-.33c-.57.25-.93.93-1.3,1.4a.6.6,0,0,0,.12.92,3.8,3.8,0,0,0,1.35.67c.42.12,1,.26,1.34-.1a.69.69,0,0,0,.16-.8l0,0A.6.6,0,0,0,153.14,7.51Z"></path><path d="M151.82,10.56c-.26-.11-.51-.22-.75-.34A5,5,0,0,1,149.93,9c-.41-1-.77-2.47-1.64-3.23a.63.63,0,0,0-.73-.57c-.52.1-.77.31-.84.58a.56.56,0,0,0-.14.36,2.72,2.72,0,0,0,.32,1.16,1.21,1.21,0,0,0,0,.14c.15.33.31.65.48,1s.38.75.6,1.11a.61.61,0,0,0,.27.24.4.4,0,0,0,.12.16l0,0a.48.48,0,0,0,.43.28,7.32,7.32,0,0,0,1.81,1.07,3.11,3.11,0,0,0,.83.36A.59.59,0,0,0,151.82,10.56Z"></path><path d="M146.19,7.57a.62.62,0,0,0-1-.53c-1.27,1.12-.09,2.31.84,3.16a13.78,13.78,0,0,0-1.82-.06c-.3,0-.65.08-1,.11-.32-.25-.66-.45-1-.72l-.3-.3a2.59,2.59,0,0,1,.81-1.52.59.59,0,0,0-.83-.83c-1.22,1-3.14,2.37-1.52,3.78a.52.52,0,0,0,.41.53,18.31,18.31,0,0,0,6.3.34c.3,0,.6.1.91.17a.59.59,0,0,0,.57-1A10.55,10.55,0,0,1,146.19,7.57Z"></path><path d="M133.8,12l-.49.77a2.21,2.21,0,0,1-.54-.36,3.7,3.7,0,0,1-.78-.89c-.17-.53-.35-1-.53-1.58a14.14,14.14,0,0,1,.46-1.79c.23-.73-.9-1-1.13-.32-.15.49-.28,1-.38,1.47a.6.6,0,0,0-.2.57c0,.12,0,.23.06.35A4.15,4.15,0,0,0,132,14.36a2.5,2.5,0,0,0,2.76.27c.9-.62.38-1.92.17-2.78A.59.59,0,0,0,133.8,12Z"></path><path d="M131.75,14.8a5.88,5.88,0,0,1-2.9-3.61,7.41,7.41,0,0,0,.55-1.4.55.55,0,0,0-.43-.7.54.54,0,0,0-.78-.23l-4.87,3a7.77,7.77,0,0,1-1.81.11c-.71,0-.73.93-.15,1.15l.44.27c-.26.39.1,1.07.64.89A1.61,1.61,0,0,0,123,14c.63-.35,1.3-.75,2-1.11a9,9,0,0,0,2.26-.66,2,2,0,0,0,.2.88c.74,1.55,2.3,2,3.77,2.72C131.84,16.13,132.43,15.17,131.75,14.8Z"></path><path d="M121.1,17.08a5.56,5.56,0,0,0-1.06-.7h0l-.06-.05h0l-.11-.09a.34.34,0,0,0-.12-.06,10.09,10.09,0,0,1-1.2-1.07l0,0c0-.71-.1-1.41-.21-2.11s-1.25-.43-1.13.31a18,18,0,0,1,.2,2.42.61.61,0,0,0,.29.51,1,1,0,0,1,.2.12,7,7,0,0,0,1.78,2.17,3.57,3.57,0,0,0,.6.68l.1.14a.57.57,0,0,0,.54.25.61.61,0,0,0,.81-.53,2.13,2.13,0,0,0-.09-.93A2,2,0,0,0,121.1,17.08Z"></path><path d="M119.14,18.55a7.15,7.15,0,0,1-2-1.84c-.41-.46-1,0-1,.51l-1.21.33a8.66,8.66,0,0,1-1.66-2.43c-.24-.5-.91-.27-1.08.14-.23.59-.68,1.25-.47,1.89s1.12,1.28,1.6,1.7a1.65,1.65,0,0,0,1.63.47,12.19,12.19,0,0,1,3.71.3C119.3,19.77,119.76,18.85,119.14,18.55Z"></path><path d="M112.13,18.44a.52.52,0,0,0-.08-.41,9.49,9.49,0,0,1-.47-1.23l-.67-1.38a.88.88,0,0,0-1.26.14,4.81,4.81,0,0,0-.68,1.26c-.09.48.34.73.6,1.07s.59.9.94,1.31a2.06,2.06,0,0,0,1.29.54c.45.1,1-.42.66-.86Z"></path><path d="M55.41,10.27c-.5.56.33,1.4.83.83a3.83,3.83,0,0,1,3.5-.9l-.12.21a13.91,13.91,0,0,0-1.12,1.05.59.59,0,0,0,.25,1c.9.3,1.4-.55,1.8-1.29.2-.16.38-.33.59-.48a.59.59,0,0,0,.12-.92C59.78,8.38,56.71,8.79,55.41,10.27Z"></path><path d="M50.62,7.12c-.36-.67-1.38-.07-1,.59.23.41.42.83.61,1.26a10.9,10.9,0,0,0-3.51.14,6.44,6.44,0,0,1,.76-1.28c.46-.61-.56-1.19-1-.6a7.36,7.36,0,0,0-1.2,2.47,4.51,4.51,0,0,0-.54.05c.15-.53.32-1.06.51-1.58.26-.71-.87-1-1.13-.31a27.72,27.72,0,0,0-.85,2.82c-.13.53.58,1,1,.57a1.38,1.38,0,0,1,1.19-.38.54.54,0,0,0,.34-.12.47.47,0,0,0,.27-.08c1.26-.84,3.54-.61,5-.45a.49.49,0,0,0,.49-.23.49.49,0,0,0,.17-.6A20.26,20.26,0,0,0,50.62,7.12Z"></path><path d="M34.51,15.48l-.27-.08a.45.45,0,0,0,.31-.42h.05A2.38,2.38,0,0,1,35,15a4.56,4.56,0,0,1,.79.26.59.59,0,0,0,.71-.09c.42-.47.86-.93,1.28-1.4a1.39,1.39,0,0,0,.5-.92c0-.89-1-1.6-1.68-2.07s-1.19.57-.59,1a5.83,5.83,0,0,1,.8.69l.2.25q.3,0-.06.21a7.25,7.25,0,0,1-1,1.14c-1-.33-2.71-.65-2.53.76a.64.64,0,0,0,.16.34,4,4,0,0,0-1.93,0c-.72.22-.42,1.35.31,1.13a4.53,4.53,0,0,1,2.29.3A.59.59,0,0,0,34.51,15.48Z"></path><path d="M29.49,20.35a8,8,0,0,0-1.43-1.1.62.62,0,0,0-.89.54l0,.07a3.83,3.83,0,0,0,.14,2.29,3,3,0,0,0,.52,1.28c-.34.27-.79.16-1.22.41a1.54,1.54,0,0,0-.64.95c-.24.72.89,1,1.13.31.1-.3,1-.38,1.26-.54a2,2,0,0,0,.74-.88.62.62,0,0,0-.21-.8,3.16,3.16,0,0,1-.67-2.12c.22.18.42.38.63.55s.68.58,1,.88a.5.5,0,0,0,.29.3l.16.07c.56.25,1.25-.45.71-.92S30,20.77,29.49,20.35Z"></path><path d="M25.86,33.75a2,2,0,0,1,.43,0l.14,0a.59.59,0,0,0,1.14.26,1.1,1.1,0,0,0-.6-1.29,2.39,2.39,0,0,0-1.22-.17c0-.33.16-1,.62-1.11a.59.59,0,0,0,.26-1,5.36,5.36,0,0,0-1.43-.82c-.7-.28-1,.85-.31,1.13a2.06,2.06,0,0,1,.26.12,4.61,4.61,0,0,0-.36.48,1.62,1.62,0,0,0-.24.63c0,.19.21,1.2-.12,1.26-.74.17-.42,1.27.32,1.13a3.45,3.45,0,0,1,.56-.1A.63.63,0,0,0,25.86,33.75Z"></path><path d="M28.77,43a10.4,10.4,0,0,0,0-1.58.67.67,0,0,0-.16-.36c.24-.42-.06-1.08-.62-.87a5.84,5.84,0,0,0-1.45.79,4.15,4.15,0,0,0-.88.85.48.48,0,0,0-.19.75,17.36,17.36,0,0,0,1.64,1.89,6.74,6.74,0,0,1,1.73,2c.25.67,1.3.42,1.15-.23a.25.25,0,0,0,0-.07c.44-.87.76-2,0-2.77A1.43,1.43,0,0,0,28.77,43Zm-2.41-1.19h0Zm.42.54.1-.11a5,5,0,0,1,.43-.37l.31-.2a9.36,9.36,0,0,1,0,1.59A11.57,11.57,0,0,1,26.78,42.3Zm1.82,2a.44.44,0,0,1,.71.38.93.93,0,0,1,0,.33C29.06,44.71,28.83,44.48,28.6,44.25Z"></path><path d="M39.5,54.19c-.65-.28-1.34-.54-2-.85a1.18,1.18,0,0,1,.61-.39.59.59,0,0,0-.32-1.13,2.44,2.44,0,0,0-1.32.93,5.47,5.47,0,0,1-1-1.15l.19-.16c.1-.09.23-.24.37-.22.6.07.76-.82.29-1.1s-1-.75-1.51-.61h0a.57.57,0,0,0-.67.24l-.55.81a.59.59,0,0,0,.1.71,6.54,6.54,0,0,1,.57.61.76.76,0,0,0,.12.19l.06.05a6.68,6.68,0,0,0,1.36,1.55,16.42,16.42,0,0,0,3.16,1.52C39.6,55.49,40.19,54.48,39.5,54.19Z"></path><path d="M47.73,55.05a9.1,9.1,0,0,1-1-1c-.48-.59-1.31.25-.83.82a8.44,8.44,0,0,0,1,1.06l.47.38-.44,0A4.71,4.71,0,0,1,45.81,56a1.68,1.68,0,0,0-.24-.6.45.45,0,0,0-.17-.55,1,1,0,0,0-1.58.3c-.26.69.22,1.05.73,1.33.66,1,2.88,1,3.76,1a.54.54,0,0,0,.56-.64.56.56,0,0,0,0-.82C48.53,55.65,48.1,55.38,47.73,55.05Z"></path><path d="M59.19,54.33a4.92,4.92,0,0,1-1.64-1c-.47-.4-1.33.14-.92.71a1.25,1.25,0,0,0,.09.12h0a3.23,3.23,0,0,0,.58.59,3.65,3.65,0,0,0,.45.32l-.14.09a7,7,0,0,1-1.38.82A.56.56,0,0,1,56,56a2.19,2.19,0,0,0-.32-.83.62.62,0,0,0-.7-.82c-1.42.3-1.66,1.42-.48,2.23a1.4,1.4,0,0,0,.43.2,1,1,0,0,0,.46.4c.78.35,1.58-.22,2.22-.6.42-.25,1.28-.58,1.55-1.11A.61.61,0,0,0,59.19,54.33Z"></path></svg>
