<svg data-name="Layer 1" xmlns="http://www.w3.org/2000/svg" viewBox="0 0 300 82"><polygon points="9.78 43.67 43.82 61.09 45.45 57.92 11.65 40.65 9.78 43.67"></polygon><polygon points="12.47 39.43 46.02 56.78 46.02 50.87 18.09 36.34 12.47 39.43"></polygon><polygon points="46.02 49.12 43.34 47.58 53.84 26.89 55.71 30.07 46.02 49.12"></polygon><path d="M32.87,16l-4.6.44L18.7,35.34l3.17,1.24L32.34,16.79,22.73,37l19.51,10.3,10.95-21ZM41.3,44.07,26,36.34l8.47-16.78L50,27.34Z"></path><polygon points="34.96 20.84 27.46 35.86 40.97 42.77 48.67 27.87 34.96 20.84"></polygon><polygon points="36.66 7.02 58.2 18.09 51.07 6.32 36.66 7.02"></polygon><path d="M24.72,20.84l-1-1.28A17.48,17.48,0,0,0,17.07,32.1H19Z"></path><path d="M49.67,48.78h0a1.43,1.43,0,0,1-.58-1.93L54.82,36a1.43,1.43,0,0,1,1.93-.57h0a1.43,1.43,0,0,1,.58,1.93L51.6,48.2A1.43,1.43,0,0,1,49.67,48.78Z"></path><path d="M57.75,38.7,53.6,47l6.27,2.94s3.34-6.07,4.92-6.8Z"></path><path d="M69,45.21,64,51.93l4.72,2.45,1.15-7.82S70.21,44.32,69,45.21Z"></path><path d="M72.08,49.69l-.57,6.19,3.22,1.51,1.18-5.62S72.82,50,72.08,49.69Z"></path><path d="M81.69,56.94l-2.56,2.69,2.16.85c.53.21,5.82-3.54,5.82-3.54Z"></path><polygon points="90.25 56.94 86.25 64.11 88.25 66.35 93.3 56.94 90.25 56.94"></polygon><path d="M93.79,58,88.41,69.06l.57-.31,2.12-2.93,6.35-1.06S94.6,57.39,93.79,58Z"></path><path d="M56.49,28.88l-1.88-3.21L58.2,19,60,21.92l-.2.37a3.2,3.2,0,0,0-2.47,1.3,3.14,3.14,0,0,0,0,3.5Z"></path><path d="M32.34,8c-.13-.1,3.83-.24,3.83-.24l-2.77,7H29l.78-1.87s2.33.51,3.26-1.24A2.63,2.63,0,0,0,32.34,8Z"></path><path d="M37,8.2,33.4,14.71,53.88,25.18l3.62-6.52ZM41.38,17a2.49,2.49,0,1,1,2.44-2.48A2.47,2.47,0,0,1,41.38,17Zm8.86,4.51a2.49,2.49,0,1,1,2.21-2.69A2.46,2.46,0,0,1,50.24,21.46Z"></path><path d="M30.22,13.89a3.69,3.69,0,0,1-.31-4.4c1-1.39,3.57-1,3.86-1l-.17,1c-.61-.1-2.32-.19-2.9.59a2.72,2.72,0,0,0,.18,3.09Z"></path><path d="M57.88,27.35A4.31,4.31,0,0,1,56.12,27l.41-.88c.22.1,2.19,1,3-.74a2.18,2.18,0,0,0-.95-2.87l.49-.85a3.15,3.15,0,0,1,1.34,4.13,2.58,2.58,0,0,1-1.49,1.43A3.07,3.07,0,0,1,57.88,27.35Z"></path><polygon points="290.22 43.67 256.18 61.09 254.55 57.92 288.35 40.65 290.22 43.67"></polygon><polygon points="287.53 39.43 253.98 56.78 253.98 50.87 281.91 36.34 287.53 39.43"></polygon><polygon points="253.98 49.12 256.67 47.58 246.16 26.89 244.29 30.07 253.98 49.12"></polygon><path d="M246.81,26.24l10.95,21.05L277.27,37l-9.61-20.2,10.47,19.79,3.17-1.24-9.57-18.92-4.6-.44Zm3.18,1.1,15.55-7.78L274,36.34,258.7,44.07Z"></path><polygon points="265.04 20.84 272.54 35.86 259.03 42.77 251.33 27.87 265.04 20.84"></polygon><polygon points="263.34 7.02 241.8 18.09 248.93 6.32 263.34 7.02"></polygon><path d="M275.28,20.84l1-1.28a17.48,17.48,0,0,1,6.64,12.54H281Z"></path><path d="M250.33,48.78h0a1.43,1.43,0,0,0,.58-1.93L245.18,36a1.43,1.43,0,0,0-1.93-.57h0a1.43,1.43,0,0,0-.58,1.93L248.4,48.2A1.43,1.43,0,0,0,250.33,48.78Z"></path><path d="M242.25,38.7,246.4,47l-6.27,2.94s-3.34-6.07-4.92-6.8Z"></path><path d="M231.05,45.21,236,51.93l-4.72,2.45-1.15-7.82S229.79,44.32,231.05,45.21Z"></path><path d="M227.92,49.69l.57,6.19-3.22,1.51-1.18-5.62S227.18,50,227.92,49.69Z"></path><path d="M218.31,56.94l2.56,2.69-2.16.85c-.53.21-5.82-3.54-5.82-3.54Z"></path><polygon points="209.75 56.94 213.75 64.11 211.75 66.35 206.7 56.94 209.75 56.94"></polygon><path d="M206.21,58l5.38,11.06-.57-.31-2.12-2.93-6.35-1.06S205.4,57.39,206.21,58Z"></path><path d="M243.51,28.88l1.88-3.21L241.8,19l-1.75,2.93.2.37a3.2,3.2,0,0,1,2.47,1.3,3.14,3.14,0,0,1,0,3.5Z"></path><path d="M267.66,8c.13-.1-3.83-.24-3.83-.24l2.77,7H271l-.78-1.87s-2.33.51-3.26-1.24A2.63,2.63,0,0,1,267.66,8Z"></path><path d="M242.5,18.66l3.62,6.52L266.6,14.71,263,8.2Zm13.68-4.19A2.45,2.45,0,1,1,258.62,17,2.47,2.47,0,0,1,256.18,14.47Zm-8.63,4.3a2.45,2.45,0,1,1,2.21,2.69A2.46,2.46,0,0,1,247.55,18.77Z"></path><path d="M269.78,13.89a3.69,3.69,0,0,0,.31-4.4c-1-1.39-3.57-1-3.86-1l.17,1c.61-.1,2.32-.19,2.9.59a2.72,2.72,0,0,1-.18,3.09Z"></path><path d="M242.12,27.35a4.31,4.31,0,0,0,1.76-.39l-.41-.88c-.22.1-2.19,1-3-.74a2.18,2.18,0,0,1,.95-2.87l-.49-.85a3.15,3.15,0,0,0-1.34,4.13,2.58,2.58,0,0,0,1.49,1.43A3.07,3.07,0,0,0,242.12,27.35Z"></path><path d="M108.87,19.56,98,11.21,117.71,16a7.84,7.84,0,0,0,2.85-.6,14,14,0,0,1,2-.91s.65-4.73-.48-5.25l5.13,2.36a2.87,2.87,0,0,0,2,.4,3,3,0,0,0,2.45-2.44c.16-1.38.73-6.84.73-6.84s.73-.41,1.79.81,4.89,5.54,4.89,5.54a5.76,5.76,0,0,0,2.85.82c1.38-.08,4.23-.57,5.37-.49,0,0,1.47-2.77,1.71-3.5s.17-1.63.74-1.23a48.76,48.76,0,0,1,3.34,4.48s10.91.82,12.21.9S173,2.63,173,2.63s.73.07.73.64-.65,6.6-.65,6.6a2.44,2.44,0,0,0,1.14,1.87c1.06.57,2.52,1.14,2.52,1.14a16.78,16.78,0,0,0,4-.67c.9-.47,5.71-2.51,5.71-2.51v5.62a2.87,2.87,0,0,0,.81,1.37,3.46,3.46,0,0,0,3.18.67C192.07,17,202,13.12,202,13.12l-4.4,6.44H181.4s-5.5-5.62-28.81-6.6c0,0-22.83,1.14-29.26,6.6Z"></path><path d="M152.59,14.26c-16,0-25,5.3-25,5.3h51.15S168.31,14.28,152.59,14.26Zm0,1.72a74.48,74.48,0,0,1,17.65,2.52H135.71S145.28,16,152.59,16Z"></path><path d="M220.69,56.17H79.31l-.15-.8c0-.2-1-4.82-5.18-6.09l-.7-.2V28.56l.7-.21c4.26-1.27,5.17-6,5.18-6.08l.15-.8H220.69l.15.8c0,.2.95,4.81,5.18,6.08l.7.21V49.08l-.7.2c-4.26,1.28-5.17,6-5.18,6.08Zm-139.81-2H219.12a10,10,0,0,1,5.64-6.56V30a10,10,0,0,1-5.64-6.56H80.88A10,10,0,0,1,75.24,30V47.65A10,10,0,0,1,80.88,54.21Z"></path><path d="M218,52.42H82l-.1-.35a9,9,0,0,0-4.79-5.2l-.31-.12V30.89l.31-.12a9,9,0,0,0,4.79-5.2l.1-.35H218l.1.35a9,9,0,0,0,4.79,5.2l.31.12V46.75l-.31.12a8.93,8.93,0,0,0-4.79,5.2Zm-135.33-1H217.31a9.76,9.76,0,0,1,4.93-5.34V31.54a9.76,9.76,0,0,1-4.93-5.34H82.69a9.76,9.76,0,0,1-4.93,5.34V46.1A9.76,9.76,0,0,1,82.69,51.44Z"></path></svg>
