<svg data-name="Layer 1" xmlns="http://www.w3.org/2000/svg" viewBox="0 0 300 82"><path d="M31.36,25.9s-6.84,1.22-8.68,2.45S3.17,45.2,2.53,51.43a17.7,17.7,0,0,1,2.81-1.58c1.62-.74,2.36,1.87,9.36-2.2,0,0,1.3-.25.9.65s-1.22,2.44-1.22,2.44,5-5,5.7-5.21-.49,2-.49,2-2,5.62.24,6c0,0,1.14-2.36,2.69-2.69A42.27,42.27,0,0,0,31,47.08c3-1.71,6.76-5,7.17-5.7,0,0-3.75,6.76-3.67,9s.33,3.5.9,3.17.41-2.28,2.28-2.93S43,48.79,44.92,47s3.58-3.59,3.58-3.59a1.12,1.12,0,0,1,.41,1.39s3.26-3.13,5.29-5c0,0,.73-.76,0,1.61a12.6,12.6,0,0,0-.49,4.56,71.07,71.07,0,0,0,6-4.32l1.63-1.85s.08,3.72,0,4.38,1.55-1.35,2.44-1.86A17.56,17.56,0,0,0,68,37.71a4.69,4.69,0,0,1,2.36.08l.89.41V35.1H66.58s-.65-3.09-.08-3.82c0,0-8.23,4.23-15.8,4,0,0-.41-3,.57-3.83,0,0-5.29,2.36-6.6,2.36,0,0-.4-2.77.17-3.74a24.31,24.31,0,0,1-12.38,2.52,16.64,16.64,0,0,0-2.77.41A10.38,10.38,0,0,1,31.36,25.9Z"></path><path d="M46,15.08s-8.41,1.85-11.74,3.32-9.78,6.26-12.42,6.45c0,0,.1,1.76,1.76,1.57s7.83-2.94,12.23-2.54c0,0-5.58,3.61-5.28,7.43,0,0,2.15-.1,4.3,0s9.51-1.19,12.87-3.7c0,0-2.26,2.75-1.53,4.46,0,0,6.6-2.14,7.69-2.93,0,0-1.77,2.81-1.89,4.27,0,0,7.7.92,16.43-4.64a20.68,20.68,0,0,0-.79,4.34l3.36.36.28-6.41s4.24-.55,4.73-2.14c0,0-3.34-.06-4.73-1.52s-2-2.45-1.2-3.3a25.78,25.78,0,0,1-9.1-.12c-5.8-.92-7.15-2.69-5.92-3.79C55,16.19,48.32,16.22,46,15.08Z"></path><path d="M45,10.92s-1,.32,0,1.38,4.52,2.36,6.15,2.4,5.86,0,6.84,0a12.23,12.23,0,0,1-1.91,2c-.41.12,2,1.38,4,1.67s9.24.57,13.88-.69l-2.73,2.85s-.81.85.33,1.62,4.15,1.76,5.13,1.39a6.55,6.55,0,0,0,1.06-3.71h12.5s-1.22-2.6-1.1-3.34h-3s-.61-2.89,0-3.42c0,0-10.63-.24-12.59-3.91,0,0-12.82.17-18,.7S46.14,11.61,45,10.92Z"></path><path d="M74.17,7.05a2.87,2.87,0,0,0,.88,2.07c1,.8,6.15,3,11.89,2.77a10.25,10.25,0,0,1,.2,2.81,16.89,16.89,0,0,0,2.77.74s1,4.27,2.61,4.52a15.58,15.58,0,0,0,3-2.94c.66-1.14.61-1.57,2.32-1.94s3.79-1,3.26-2.86-3.58-3-8.75-3.91a73.51,73.51,0,0,0-10.22-.94c-2.2-.16-5.36-.07-6.72-.77S74.17,7.05,74.17,7.05Z"></path><path d="M268.64,25.9s6.84,1.22,8.68,2.45,19.51,16.85,20.15,23.08a17.7,17.7,0,0,0-2.81-1.58c-1.62-.74-2.36,1.87-9.36-2.2,0,0-1.3-.25-.9.65s1.22,2.44,1.22,2.44-5-5-5.7-5.21.49,2,.49,2,2,5.62-.24,6c0,0-1.14-2.36-2.69-2.69A42.27,42.27,0,0,1,269,47.08c-3-1.71-6.76-5-7.17-5.7,0,0,3.75,6.76,3.67,9s-.33,3.5-.9,3.17-.41-2.28-2.28-2.93S257,48.79,255.08,47s-3.58-3.59-3.58-3.59a1.12,1.12,0,0,0-.41,1.39s-3.26-3.13-5.29-5c0,0-.73-.76,0,1.61a12.6,12.6,0,0,1,.49,4.56,71.07,71.07,0,0,1-6-4.32l-1.63-1.85s-.08,3.72,0,4.38-1.55-1.35-2.44-1.86A17.56,17.56,0,0,1,232,37.71a4.69,4.69,0,0,0-2.36.08l-.89.41V35.1h4.64s.65-3.09.08-3.82c0,0,8.23,4.23,15.8,4,0,0,.41-3-.57-3.83,0,0,5.29,2.36,6.6,2.36,0,0,.4-2.77-.17-3.74a24.31,24.31,0,0,0,12.38,2.52,16.64,16.64,0,0,1,2.77.41A10.38,10.38,0,0,0,268.64,25.9Z"></path><path d="M254.05,15.08s8.41,1.85,11.74,3.32,9.78,6.26,12.42,6.45c0,0-.1,1.76-1.76,1.57s-7.83-2.94-12.23-2.54c0,0,5.58,3.61,5.28,7.43,0,0-2.15-.1-4.3,0s-9.51-1.19-12.87-3.7c0,0,2.26,2.75,1.53,4.46,0,0-6.6-2.14-7.69-2.93,0,0,1.77,2.81,1.89,4.27,0,0-7.7.92-16.43-4.64a20.68,20.68,0,0,1,.79,4.34l-3.36.36-.28-6.41s-4.24-.55-4.73-2.14c0,0,3.34-.06,4.73-1.52s2.05-2.45,1.2-3.3a25.78,25.78,0,0,0,9.1-.12c5.8-.92,7.15-2.69,5.92-3.79C245,16.19,251.68,16.22,254.05,15.08Z"></path><path d="M255,10.92s1,.32,0,1.38-4.52,2.36-6.15,2.4-5.86,0-6.84,0a12.23,12.23,0,0,0,1.91,2c.41.12-2,1.38-3.95,1.67s-9.24.57-13.88-.69l2.73,2.85s.81.85-.33,1.62-4.15,1.76-5.13,1.39a6.55,6.55,0,0,1-1.06-3.71h-12.5s1.22-2.6,1.1-3.34h3s.61-2.89,0-3.42c0,0,10.63-.24,12.59-3.91,0,0,12.82.17,18,.7S253.86,11.61,255,10.92Z"></path><path d="M225.83,7.05A2.87,2.87,0,0,1,225,9.12c-1,.8-6.15,3-11.89,2.77a10.25,10.25,0,0,0-.2,2.81,16.89,16.89,0,0,1-2.77.74s-1,4.27-2.61,4.52a15.58,15.58,0,0,1-3-2.94c-.66-1.14-.61-1.57-2.32-1.94s-3.79-1-3.26-2.86,3.58-3,8.75-3.91a73.51,73.51,0,0,1,10.22-.94c2.2-.16,5.36-.07,6.72-.77S225.83,7.05,225.83,7.05Z"></path><path d="M187.19,17.25a.3.3,0,0,0-.21-.52,6,6,0,0,0-2.26.56c-2.2.92-3,1.53-5.86,1.77s-8.19,0-8.19,0-1.95.31-1.28-1.47,5.56-6.9,5.56-6.9,0-.43-.61,0-7.51,6.11-9.41,6.6-3.48.87-7-.94c-3.25-1.69-6.23-7-7.69-10.91a.3.3,0,0,0-.56,0c-1.46,3.89-4.44,9.22-7.69,10.91-3.48,1.81-5.07,1.43-7,.94s-8.8-6.17-9.41-6.6-.61,0-.61,0,4.89,5.13,5.56,6.9-1.28,1.47-1.28,1.47-5.32.24-8.19,0-3.66-.85-5.86-1.77a6,6,0,0,0-2.26-.56.3.3,0,0,0-.21.52,2.79,2.79,0,0,1,1,2.37.31.31,0,0,0,.31.34h71.74a.31.31,0,0,0,.31-.34A2.79,2.79,0,0,1,187.19,17.25Z"></path><path d="M150,57.66H132s.06.74,1.65.8,3.67.06,3.67,1.22-1.65,2-1.65,2-1,1.32.38.83,3.74-2,4.95-1.95,2.55,1.26,2.38,2.23l-.16,1s-.28,1,.94,0,2.08-1.1,2.77-.12,3.06,6.76,3.06,18c0-11.26,2.37-17,3.06-18s1.55-.86,2.77.12.94,0,.94,0l-.16-1c-.17-1,1.18-2.15,2.38-2.23s3.6,1.46,4.95,1.95.38-.83.38-.83-1.65-.8-1.65-2,2.08-1.16,3.67-1.22,1.65-.8,1.65-.8Z"></path><path d="M220.69,56.16H79.31l-.15-.8c0-.2-1-4.81-5.18-6.08l-.7-.21V28.55l.7-.2c4.26-1.28,5.17-6,5.18-6.08l.15-.81H220.69l.15.81c0,.19.95,4.8,5.18,6.08l.7.2V49.07l-.7.21c-4.26,1.27-5.17,6-5.18,6.08Zm-139.81-2H219.12a10,10,0,0,1,5.64-6.56V30a10,10,0,0,1-5.64-6.56H80.88A10,10,0,0,1,75.24,30V47.64A10,10,0,0,1,80.88,54.2Z"></path><path d="M218,52.41H82l-.1-.35a9,9,0,0,0-4.79-5.2l-.31-.12V30.88l.31-.12a9,9,0,0,0,4.79-5.2l.1-.35H218l.1.35a9,9,0,0,0,4.79,5.2l.31.12V46.74l-.31.12a9,9,0,0,0-4.79,5.2Zm-135.33-1H217.31a9.76,9.76,0,0,1,4.93-5.34V31.53a9.76,9.76,0,0,1-4.93-5.34H82.69a9.76,9.76,0,0,1-4.93,5.34V46.09A9.76,9.76,0,0,1,82.69,51.43Z"></path></svg>
