<svg data-name="Layer 1" xmlns="http://www.w3.org/2000/svg" viewBox="0 0 300 82"><path d="M70.88,48.45l-3.59,2.44,9.86,6.92s.33-4.56-1.47-5.7a7.71,7.71,0,0,0-4.15-1.38Z"></path><path d="M73.16,59.69,64.36,52S58.58,52.19,57,51c0,0,1.71,3.26-6.35,4.36A23.47,23.47,0,0,1,37.16,53.5s-.73,1.55,2.28,4.31,9.12,5.87,23.21,7.82l1.39.9s-.65-2.2-.08-2.61,1.71,2,1.71,2l4.56-.25s-.82-3,1.06-4.48Z"></path><polygon points="71.2 32.08 71.2 44.21 67.3 44.95 70.06 32.08 71.2 32.08"></polygon><path d="M61.35,32.08l1.87,1.79s.41,4.72-.93,7.17c0,0-1.92-.41-2.24-1.55s-4.93-7.9-4.93-7.9-21.38-.65-28-2.28-17.28-5.13-18.4-9.2c0,0-2,2.6.32,9.69S21.85,44.05,21.85,44.05l2.93-1.71s.73,1.63.08,2.61c0,0,9,3.09,14.5,2.6L40,44.62a14.89,14.89,0,0,1,2.28,1.06c1.3.73,3.1,1.14,7.25.9A42,42,0,0,0,55.12,46l2.08-8,2.68,3.83s.33,2.93-.32,3.83l3.17-.33,3.34-13.27Z"></path><path d="M73.16,15.38l-2,9.94L57.6,22.88s-3.82-.66-2.48,1.71L56.46,27S48.4,25.32,46,21.17l1.63-2.69a7.73,7.73,0,0,0-2.85,1.14S39.69,11.8,44,3.17A12.53,12.53,0,0,0,50.19,8.3C54.18,9.6,64,13.75,73.16,15.38Z"></path><path d="M75.19,15.46c.17.25-1,10.23-1,10.23s2.77.08,3.58-5.12a3.53,3.53,0,0,1,1.71-.46l.65-3.51Z"></path><path d="M84.8,17.09s-1.14,3.34-.81,3,13.93,0,13.93,0Z"></path><path d="M229.12,48.45l3.59,2.44-9.86,6.92s-.33-4.56,1.47-5.7a7.71,7.71,0,0,1,4.15-1.38Z"></path><path d="M226.84,59.69l8.8-7.66s5.78.16,7.41-1.06c0,0-1.71,3.26,6.35,4.36a23.47,23.47,0,0,0,13.44-1.83s.73,1.55-2.28,4.31-9.12,5.87-23.21,7.82l-1.39.9s.65-2.2.08-2.61-1.71,2-1.71,2l-4.56-.25s.82-3-1.06-4.48Z"></path><polygon points="228.8 32.08 228.8 44.21 232.71 44.95 229.94 32.08 228.8 32.08"></polygon><path d="M238.65,32.08l-1.87,1.79s-.41,4.72.93,7.17c0,0,1.92-.41,2.24-1.55s4.93-7.9,4.93-7.9,21.38-.65,28-2.28,17.28-5.13,18.4-9.2c0,0,2,2.6-.32,9.69s-12.79,14.25-12.79,14.25l-2.93-1.71s-.73,1.63-.08,2.61c0,0-9,3.09-14.5,2.6L260,44.62a14.89,14.89,0,0,0-2.28,1.06c-1.3.73-3.1,1.14-7.25.9a42,42,0,0,1-5.58-.57l-2.08-8-2.68,3.83s-.33,2.93.32,3.83l-3.17-.33-3.34-13.27Z"></path><path d="M226.84,15.38l2,9.94,13.6-2.44s3.82-.66,2.48,1.71L243.54,27s8.06-1.63,10.42-5.78l-1.63-2.69a7.73,7.73,0,0,1,2.85,1.14s5.13-7.82.82-16.45a12.53,12.53,0,0,1-6.19,5.13C245.82,9.6,236,13.75,226.84,15.38Z"></path><path d="M224.81,15.46c-.17.25,1.05,10.23,1.05,10.23s-2.77.08-3.58-5.12a3.53,3.53,0,0,0-1.71-.46l-.65-3.51Z"></path><path d="M215.2,17.09s1.14,3.34.81,3-13.93,0-13.93,0Z"></path><path d="M150.47,57.41H136.73a2.31,2.31,0,0,1,.79,1.4c.06.49.37,4,.37,4L142,65s1-4.46,1.59-5v6s5.56,2,5.86,2.38l1-8.67,1,8.67c.3-.42,5.86-2.38,5.86-2.38v-6c.55.49,1.59,5,1.59,5l4.09-2.26s.31-3.48.37-4a2.31,2.31,0,0,1,.79-1.4Z"></path><path d="M124.08,20.13s-.85-.72,0-2.37,7.85-10.79,23.24-14A17,17,0,0,1,158,5.18c3.9,1.89,2.51,4.52,2.51,4.52l-4.58,4s9-2.5,9.16-2.69a11.29,11.29,0,0,1,.67-1.77c.37-.55,1.65.49,2.08.74s7.14,6.17,8.06,8,.12,1.92-.49,2.18Z"></path><path d="M220.69,56.19H79.31l-.15-.8c0-.21-1-4.82-5.18-6.09l-.7-.21V28.58l.7-.21c4.26-1.28,5.17-6,5.18-6.08l.15-.8H220.69l.15.8c0,.2.95,4.81,5.18,6.08l.7.21V49.09l-.7.21c-4.26,1.28-5.17,6-5.18,6.08Zm-139.81-2H219.12a10,10,0,0,1,5.64-6.56V30a10,10,0,0,1-5.64-6.56H80.88A10,10,0,0,1,75.24,30V47.67A10,10,0,0,1,80.88,54.23Z"></path><path d="M218,52.44H82l-.1-.35a9,9,0,0,0-4.79-5.2l-.31-.13V30.91l.31-.12a9,9,0,0,0,4.79-5.2l.1-.35H218l.1.35a9,9,0,0,0,4.79,5.2l.31.12V46.76l-.31.13a8.93,8.93,0,0,0-4.79,5.2Zm-135.33-1H217.31a9.76,9.76,0,0,1,4.93-5.34V31.56a9.77,9.77,0,0,1-4.93-5.35H82.69a9.77,9.77,0,0,1-4.93,5.35V46.12A9.76,9.76,0,0,1,82.69,51.46Z"></path></svg>
