<svg data-name="Layer 1" xmlns="http://www.w3.org/2000/svg" viewBox="0 0 300 82"><path d="M220.69,56.2H79.31l-.15-.8c0-.2-1-4.81-5.18-6.08l-.7-.21V28.59l.7-.2c4.26-1.28,5.17-6,5.18-6.08l.15-.81H220.69l.15.81c0,.19.95,4.8,5.18,6.08l.7.2V49.11l-.7.21c-4.26,1.27-5.17,6-5.18,6.07Zm-139.81-2H219.12a10,10,0,0,1,5.64-6.56V30a10,10,0,0,1-5.64-6.56H80.88A10,10,0,0,1,75.24,30V47.68A10,10,0,0,1,80.88,54.24Z"></path><path d="M217.66,52.45H82l-.1-.35a9,9,0,0,0-4.79-5.2l-.31-.12V30.92l.31-.12a8.93,8.93,0,0,0,4.79-5.2l.1-.35H218l.1.35a9,9,0,0,0,4.79,5.2l.31.12V46.78l-.31.12a9,9,0,0,0-4.79,5.2l-.1.35Zm-135-1H217.31a9.76,9.76,0,0,1,4.93-5.34V31.57a9.76,9.76,0,0,1-4.93-5.34H82.69a9.76,9.76,0,0,1-4.93,5.34V46.13A9.76,9.76,0,0,1,82.69,51.47Z"></path><path d="M232.06,34.77l1.8,10.44s-4.68-3-5-3.69,0-5.82,0-5.82Z"></path><path d="M228.58,27.9s5.94-1.88,5.62-6.76c0,0,.26-3.26-2.8-3.51V13.81a1.75,1.75,0,0,1,1.5-1.06h54.4s1.06.32,1.22,1v4.64H240.39s-.82,9.12-11.81,13.15Z"></path><path d="M228.58,32.54v1.55a18.6,18.6,0,0,0,13.86-13.18h42.7l2.08-1.34h-46A18.06,18.06,0,0,1,228.58,32.54Z"></path><path d="M243.44,22.48h34.4a35,35,0,0,1-8,14.09L242.43,25.13A13.39,13.39,0,0,0,243.44,22.48Z"></path><path d="M241.76,26.53l26.51,11.31s-7.77,8.1-15.46,10.65l-13.52-19A12.23,12.23,0,0,0,241.76,26.53Z"></path><path d="M238.22,30.68l12.31,18.21s-7.76,1.13-14.59-2.28l-2.81-12.52A16.83,16.83,0,0,0,238.22,30.68Z"></path><path d="M228.79,43.13s5.68,6,12,7.16,28.55.86,38.81-27.81h5l2,4.05s-3.12,8.58-6.54,11-6.23,1.54-6.23,1.54l.61,5.13s-10.8,9.29-14.38,10S253.78,52,253.78,52l-2,3.95s-9.89.49-13.44-1.46l-2.44-4-2,.85s-3.88-1.66-5.07-2.78Z"></path><path d="M67.94,34.77l-1.8,10.44s4.68-3,5-3.69,0-5.82,0-5.82Z"></path><path d="M71.42,27.9S65.48,26,65.8,21.14c0,0-.26-3.26,2.8-3.51V13.81a1.75,1.75,0,0,0-1.5-1.06H12.7s-1.06.32-1.22,1v4.64H59.61s.82,9.12,11.81,13.15Z"></path><path d="M71.42,32.54v1.55A18.6,18.6,0,0,1,57.56,20.91H14.86l-2.08-1.34h46A18.06,18.06,0,0,0,71.42,32.54Z"></path><path d="M56.56,22.48H22.16a35,35,0,0,0,8,14.09L57.57,25.13A13.39,13.39,0,0,1,56.56,22.48Z"></path><path d="M58.24,26.53,31.73,37.84s7.77,8.1,15.46,10.65l13.52-19A12.23,12.23,0,0,1,58.24,26.53Z"></path><path d="M61.78,30.68,49.47,48.89S57.23,50,64.06,46.61l2.81-12.52A16.83,16.83,0,0,1,61.78,30.68Z"></path><path d="M71.21,43.13s-5.68,6-12,7.16-28.55.86-38.81-27.81h-5l-2,4.05s3.12,8.58,6.54,11,6.23,1.54,6.23,1.54l-.61,5.13s10.8,9.29,14.38,10S46.22,52,46.22,52l2,3.95s9.89.49,13.44-1.46l2.44-4,2,.85s3.88-1.66,5.07-2.78Z"></path><path d="M122.45,62c.19,2,2.87,2.14,2.87,2.14l-1-5.44C122.94,59.39,122.27,60,122.45,62Z"></path><path d="M173.88,57.13H126.12s-1.53-.06-1.22.86,1.09,5.37,1.22,6.23,1.28,1.16,2.44.92,17.23-1.53,21.44-1.35c4.21-.18,20.28,1.1,21.44,1.35s2.32-.06,2.44-.92.92-5.31,1.22-6.23S173.88,57.13,173.88,57.13Zm-40,5.62a2,2,0,1,1,2-2A2,2,0,0,1,133.84,62.75ZM150,62.23a1.83,1.83,0,1,1,1.83-1.83A1.83,1.83,0,0,1,150,62.23Zm16.19.52a2,2,0,1,1,2-2A2,2,0,0,1,166.16,62.75Z"></path><path d="M175.72,58.72l-1,5.44s2.68-.12,2.87-2.14S177.06,59.39,175.72,58.72Z"></path><path d="M196.87,3.06c-.57-.63-2.85-1.39-3,0s.88,5.73.15,8.26-4,6.6-7.28,7.64h-8a20.64,20.64,0,0,0,2.18-3.38,2.86,2.86,0,0,0-.51-2.14,2.44,2.44,0,0,0-1-.85,4.74,4.74,0,0,1,.16-1,.74.74,0,0,0,.1-.68c-.23-.72-2-1.84-3.18-2.08a.6.6,0,0,0-.35,0,6.38,6.38,0,0,0-1.15.6,5.18,5.18,0,0,0-3.58-1.39,6.93,6.93,0,0,0-2.22,0,.69.69,0,0,0-.3.2l-3,3.77a10.77,10.77,0,0,1,0-2.2,1.34,1.34,0,0,0-.26-1.28,3,3,0,0,0-2-1.25l-.62,0c-12.35-.58-19.9-.14-24.06.33a.73.73,0,0,0-.25.08,4.61,4.61,0,0,0-1.37,1.2,2.64,2.64,0,0,0-.14.29,2.16,2.16,0,0,1-.32.55s-.13,0-.41-.29l-.33-.34c-1.07-1.11-1.58-1.46-4.2-.93s-3.28.92-3.42,1a.59.59,0,0,0-.23.38,5.75,5.75,0,0,1-.34,1.22c-.31-.09-.83-.29-1.2-.42s-.84-.31-1.07-.37c-.93-.23-5.32,2.07-6.56,3.63h0a.21.21,0,0,0-.13.07c-.18.21-.15.34.06.52a.51.51,0,0,0,.18.26.66.66,0,0,0,.3.12,1,1,0,0,1,.23,1.08.48.48,0,0,1-.43.49c-.43.09-.12.4-.12.4s1,1.19,1.28,1.46a2.55,2.55,0,0,1,.43.92h-7.48c-3.33-.95-6.72-5.16-7.46-7.7s.31-6.88.15-8.26-2.45-.63-3,0c-6.26,6.89-4,17-4,17l2.1,0a13.12,13.12,0,0,1-.55-6.11c-.12,1.93,1.65,6.21,1.65,6.21h1c0-.06-.29-1.49-.47-2.31a20.5,20.5,0,0,0,1.34,2.33h2.28c-1.87-2.07-2.67-5.93-2.92-7.44.62,2.64,4.12,7.44,4.12,7.44h2.53a14.76,14.76,0,0,1-2.36-3.42c.4.89,3.52,3.36,3.52,3.36s11.71.06,12.44,0,.71-.21.71-.21c.17-.24-.28-1.75-.28-1.75a6.79,6.79,0,0,0-2.77-2.89c-.45-.12-.6-1.1-.6-1.1l-.41-.16a16,16,0,0,1,4.94-2.75l.88.31a9.55,9.55,0,0,0,1.69.54c.25,0,1,.13,1.41-2a17.4,17.4,0,0,1,2.76-.73c2.09-.43,2.24-.28,3.08.58l.33.35a1.73,1.73,0,0,0,1.49.64c.71-.13,1-.83,1.22-1.25a1.14,1.14,0,0,1,.09-.19,3.38,3.38,0,0,1,.83-.69C143.39,8.4,150.84,8,163,8.55l.67,0a2.08,2.08,0,0,1,1.09.89,19.19,19.19,0,0,0,0,4.29.62.62,0,0,0,.43.54.63.63,0,0,0,.66-.2l3.9-4.84a7.16,7.16,0,0,1,1.59.05h.1a3.89,3.89,0,0,1,3,1.35.63.63,0,0,0,.92.06,4.34,4.34,0,0,1,1.07-.65,5.52,5.52,0,0,1,2,1.12,7,7,0,0,0-.25,1.82.62.62,0,0,0,.54.63,1,1,0,0,1,.67.49,1.77,1.77,0,0,1,.34,1.12A33.46,33.46,0,0,1,177,19.2a.61.61,0,0,0,.49,1H188a.61.61,0,0,0,.39-.15l.13.07s3.12-2.47,3.52-3.36a14.76,14.76,0,0,1-2.36,3.42h2.53s3.5-4.8,4.12-7.44c-.25,1.51-1.05,5.37-2.92,7.44h2.28a20.5,20.5,0,0,0,1.34-2.33c-.18.82-.45,2.25-.47,2.31h1s1.77-4.28,1.65-6.21a13.12,13.12,0,0,1-.55,6.11l2.1,0S203.13,10,196.87,3.06Z"></path><path d="M126,20.18h4.15s-1.4-6-2.38-6.72a4.49,4.49,0,0,0-4.22,0c-1.34.67-.3,1,0,1.47S125.85,18.22,126,20.18Z"></path><path d="M131.17,20.18h8.31s-1.9-6.86-2.26-7.43-2.26-2.16-3.15-2.16-4.67,1-5,1.65a4.28,4.28,0,0,0,.43,3.14C130.07,16.33,131.29,19.2,131.17,20.18Z"></path><path d="M141.06,20.18s-2.56-7.09-2.5-8.43a4.41,4.41,0,0,0,0-.92,1.2,1.2,0,0,1,1.25-1.22c1,0,2.41.06,2.78.55s.18,1.1.67,1.07.37-1.43,1.35-1.62A19.72,19.72,0,0,1,150,9.37c1.08.3.53,2.81.23,3.11s-3.18,3.73-3,7.7Z"></path><path d="M148.37,20.18h2.27V14.32S148.47,14.62,148.37,20.18Z"></path><path d="M152,20.18h2.3s.73-8.31,1.47-9.22-.92-1.64-2.14-1.71A1.64,1.64,0,0,0,152,10Z"></path><path d="M156,20.18H162s2.07-8.86,1.64-9.9-2.5-1-3.82-.73-3.32,1.45-3.63,3.38A71.46,71.46,0,0,0,156,20.18Z"></path><path d="M164,20.18c0,.26,5.74,0,5.74,0L173,13.64s1-2.44.31-3.05-4.16-.24-4.95,1.47-1.22,3.36-2,3.9S163.85,19,164,20.18Z"></path><path d="M171.61,20.18h3.76l2.77-4.09a1.49,1.49,0,0,0-.34-1.38c-.57-.7-.64-3-.64-3s-.12-.92-1.1-.52S171.67,17,171.61,20.18Z"></path></svg>
