<svg data-name="Layer 1" xmlns="http://www.w3.org/2000/svg" viewBox="0 0 300 82"><path d="M220.69,56.11H79.31l-.15-.8c0-.2-1-4.81-5.18-6.08l-.7-.21V28.51l.7-.21c4.26-1.28,5.17-6,5.18-6.08l.15-.8H220.69l.15.8c0,.19.95,4.81,5.18,6.08l.7.21V49l-.7.21c-4.26,1.28-5.17,6-5.18,6.08Zm-139.81-2H219.12a10,10,0,0,1,5.64-6.56V29.93a10,10,0,0,1-5.64-6.56H80.88a10,10,0,0,1-5.64,6.56V47.6A10,10,0,0,1,80.88,54.16Z"></path><path d="M217.66,52.37H82l-.1-.35a9,9,0,0,0-4.79-5.2l-.31-.13V30.84l.31-.13a9,9,0,0,0,4.79-5.2l.1-.34H218l.1.35a9,9,0,0,0,4.79,5.2l.31.13V46.69l-.31.13a9,9,0,0,0-4.79,5.2l-.1.35Zm-135-1H217.31A9.77,9.77,0,0,1,222.24,46V31.49a9.77,9.77,0,0,1-4.93-5.35H82.69a9.77,9.77,0,0,1-4.93,5.35V46A9.77,9.77,0,0,1,82.69,51.39Z"></path><path d="M71.62,29.24v20s-.49,1.55-2.2.57S65,47.56,63.23,48.78s-2.77,1.55-4,.41-3.5-7.49-3.91-9.49-1.87-9,1.55-11.36a3.64,3.64,0,0,1,3.42.49c2,1.22,6-.71,6-.71S71,25,71.62,29.24Z"></path><path d="M52.81,33.39s-1,7.17,4.56,16.21c0,0,2.13,3.09-2.31,3,0,0-2.33-.57-3.64.73S49.31,56,47,54.65,39.21,42.76,39,40.15s-.08-4.32,2.2-4.48,3.75.73,4.64-.57,3-4.15,4.73-4S53.3,32.25,52.81,33.39Z"></path><path d="M37.17,39.5S39.21,50,45,55.14c0,0,2,2-.9,2.93,0,0-2.36-1.47-3.5-1a11.57,11.57,0,0,1-6.59.33c-2.12-.74-2.94.24-2.94.24S29.11,58.82,28,55.19s-1.71-9.58-1.22-11.54,1.71-5.54,2.68-5.78a1.83,1.83,0,0,1,2,.9,1.53,1.53,0,0,0,2.2.4C34.48,38.52,36.6,37.16,37.17,39.5Z"></path><path d="M27.81,37.81s-4,3.81-1.88,14.48c0,0,.57,2.52-1.22,2.19S18.28,49.73,17,46.16s-1.63-6-3.17-6.5c0,0-.9-1.87,0-3.09s5.05-5.62,7.57-6.36,2.69,1.23,2.69,1.23.49,3,1.38,3.9S28.76,36.44,27.81,37.81Z"></path><path d="M12.87,19.19a1.72,1.72,0,0,0,.53.92c.48.49-.46,1.27-.66,1.76A19.77,19.77,0,0,0,12,27.61a13.07,13.07,0,0,1,.24,3.49c-.18,1-1.28,2.31-.79,2.92s1.46,1.35,3.23-.85S18.89,29.26,21,29s1.53-1.49,1.53-2-1.28-1.6-.79-4.35.61-2.87,1.16-3.42.06-2.38-.8-2.81S12.87,16.06,12.87,19.19Z"></path><path d="M16.14,15.21s.24-.31-.43-.61.47-2.14.47-2.14,5.58-6,10-6.23S27.68,9,27.68,9s-3.84,3-3.91,4,.37,2.87-1,2.63S20.6,13.86,16.14,15.21Z"></path><path d="M228.38,29.24v20s.49,1.55,2.2.57,4.39-2.28,6.19-1.06,2.77,1.55,4,.41,3.5-7.49,3.91-9.49,1.87-9-1.55-11.36a3.64,3.64,0,0,0-3.42.49c-2,1.22-5.95-.71-5.95-.71S229,25,228.38,29.24Z"></path><path d="M247.19,33.39s1,7.17-4.56,16.21c0,0-2.13,3.09,2.31,3,0,0,2.33-.57,3.64.73S250.69,56,253,54.65s7.82-11.89,8.07-14.5.08-4.32-2.2-4.48-3.75.73-4.64-.57-3-4.15-4.73-4S246.7,32.25,247.19,33.39Z"></path><path d="M262.83,39.5s-2,10.5-7.82,15.64c0,0-2,2,.9,2.93,0,0,2.36-1.47,3.5-1a11.57,11.57,0,0,0,6.59.33c2.12-.74,2.94.24,2.94.24s1.95,1.16,3.09-2.47,1.71-9.58,1.22-11.54-1.71-5.54-2.68-5.78a1.83,1.83,0,0,0-2,.9,1.53,1.53,0,0,1-2.2.4C265.52,38.52,263.4,37.16,262.83,39.5Z"></path><path d="M272.19,37.81s4,3.81,1.88,14.48c0,0-.57,2.52,1.22,2.19s6.43-4.75,7.74-8.32,1.63-6,3.17-6.5c0,0,.9-1.87,0-3.09s-5.05-5.62-7.57-6.36-2.69,1.23-2.69,1.23-.49,3-1.38,3.9S271.24,36.44,272.19,37.81Z"></path><path d="M287.13,19.19a1.72,1.72,0,0,1-.53.92c-.48.49.46,1.27.66,1.76a19.77,19.77,0,0,1,.75,5.74,13.07,13.07,0,0,0-.24,3.49c.18,1,1.28,2.31.79,2.92s-1.46,1.35-3.23-.85S281.11,29.26,279,29s-1.53-1.49-1.53-2,1.28-1.6.79-4.35-.61-2.87-1.16-3.42-.06-2.38.8-2.81S287.13,16.06,287.13,19.19Z"></path><path d="M283.86,15.21s-.24-.31.43-.61-.47-2.14-.47-2.14-5.58-6-10-6.23S272.32,9,272.32,9s3.84,3,3.91,4-.37,2.87,1,2.63S279.4,13.86,283.86,15.21Z"></path><path d="M217.59,57.48H82.41S82.23,60.1,83.82,61a15.18,15.18,0,0,1,1-1.47c.55-.67,1.22-1,1.64-.55s2.33,3.42,3.73,3.61a1.79,1.79,0,0,0,.67-.86A1.67,1.67,0,0,1,93.35,61c1.1.79,5.13,4,7.81,4,0,0,1.59.12,1.84-.67s.12-2.26,1.83-3.08,4.58-2.24,10.75-2.05,7.76.91,8.55,1.59,1.16.42,1.77.12,2.57-2.08,2.81-2.2,6.66,0,6.66,0,1.65,7.57,6.35,9c0,0,.61-.12.37-.86s-1.83-7,1.47-8.18c0,0,.67.18.61.73s.15,5.16,4,6.6c0,0,.36.09.21-.58s-.7-6.29,1.62-6.75c2.32.46,1.77,6.08,1.62,6.75s.21.58.21.58c3.85-1.44,4.06-6,4-6.6s.61-.73.61-.73c3.3,1.22,1.71,7.45,1.47,8.18s.37.86.37.86c4.7-1.41,6.35-9,6.35-9s6.41-.12,6.66,0,2.2,1.89,2.81,2.2,1,.55,1.77-.12,2.38-1.41,8.55-1.59,9,1.22,10.75,2.05,1.59,2.28,1.83,3.08,1.84.67,1.84.67c2.68,0,6.71-3.18,7.81-4a1.67,1.67,0,0,1,2.45.67,1.79,1.79,0,0,0,.67.86c1.4-.19,3.3-3.12,3.73-3.61s1.09-.12,1.64.55a15.18,15.18,0,0,1,1,1.47C217.77,60.1,217.59,57.48,217.59,57.48Z"></path><path d="M194.93,13.31c-1.67-.24-6.52,2.73-8.72,5.22h-4.27s1.1-2.28,1.5-2.41.29-1.38-1.42-1-4.69,3.42-4.69,3.42H167s-3.87-6.52-7.65-8.07c0,0-2.41-.81-1.67.7a8.14,8.14,0,0,1,.9,6.05,5,5,0,0,1-.9,1.48H142.29a5,5,0,0,1-.9-1.48,8.14,8.14,0,0,1,.9-6.05c.74-1.51-1.67-.7-1.67-.7-3.78,1.55-7.65,8.07-7.65,8.07h-10.3s-3-3-4.69-3.42-1.83.85-1.42,1,1.5,2.41,1.5,2.41h-4.27c-2.2-2.49-7.05-5.46-8.72-5.22s.53,2,.53,2,2.32,2.93,1.27,3.3-.25,1.46-.25,1.46h86.76s.81-1.09-.25-1.46,1.27-3.3,1.27-3.3S196.6,13.56,194.93,13.31Z"></path></svg>
