<svg data-name="Layer 1" xmlns="http://www.w3.org/2000/svg" viewBox="0 0 300 82"><path d="M220.69,56.15H79.3l-.15-.8c0-.2-1-4.81-5.18-6.08l-.7-.21V28.55l.7-.21c4.26-1.28,5.17-6,5.18-6.08l.15-.8H220.69l.14.8c0,.19.95,4.81,5.18,6.08l.7.21V49.06l-.7.21c-4.26,1.28-5.17,6-5.18,6.08ZM80.87,54.2H219.11a10,10,0,0,1,5.65-6.56V30a10,10,0,0,1-5.65-6.56H80.87A10,10,0,0,1,75.23,30V47.64A10,10,0,0,1,80.87,54.2Z"></path><path d="M217.65,52.41H82l-.1-.35a9,9,0,0,0-4.79-5.2l-.31-.13V30.88l.31-.13a8.87,8.87,0,0,0,4.79-5.2l.1-.35H218l.11.35a8.91,8.91,0,0,0,4.79,5.2l.3.13V46.73l-.3.13a8.91,8.91,0,0,0-4.79,5.2l-.11.34Zm-135-1H217.3a9.81,9.81,0,0,1,4.93-5.35V31.53a9.81,9.81,0,0,1-4.93-5.35H82.68a9.77,9.77,0,0,1-4.93,5.35V46.08A9.77,9.77,0,0,1,82.68,51.43Z"></path><path d="M223.29,24.63s3.42,2.45,5.38,2.94V45.1s10.93-2.81,14.29-1c0,0-1.53-5.13.3-5.93s3.61-1.59,3.91-1.1.86,1.53.92,5.74a37.78,37.78,0,0,1-.92,9.15c-.25,1-1.2,2.84.92,2.58,2.57-.3,2.08-1.65,2.32-3.48s.92-14.29-1.95-23.33-8.25-18.88-9.41-20.28-3.6-.31-3.6-.31-1.1.8.18,1.9a38.27,38.27,0,0,1,7.82,13,3.18,3.18,0,0,1-1.71,1c-1,.19-4.58,2-5.5-4.52C236.24,18.4,234.16,21.7,223.29,24.63Z"></path><path d="M240.39,6.43l3.12-.92s5.38,9.23,7.15,14.24h2.81s2.19,2.13,3.17,6.9,1.16,6.17.61,8.49L255,36.36s.74,8.92.55,15a30,30,0,0,1-3.17,1.34s0-17.9-2.33-25.35S242,8.08,240.39,6.43Z"></path><path d="M255.3,20.42a32.54,32.54,0,0,1,3.3,12.4l2.5-1.28s-.92-7.94-3.24-11.12Z"></path><path d="M264,19.47l-4,.7c-.49.1,2.66,4.07,3,10.94,0,0,5.56-2.05,6.94-2l-3.85-5.31L267,22s4.64,5.22,4.7,5.4-.76-6.87-3.39-9.53a13.94,13.94,0,0,0-2.5,3.73c-.59,1.68-2.11,7.27-2.11,7.27a11.78,11.78,0,0,1-.55-5.59C263.76,20.88,264,19.47,264,19.47Z"></path><path d="M270.51,17.58s2.84,3.42,3.6,10.66l1.22.55a22.49,22.49,0,0,0-.52-7.06,19.69,19.69,0,0,0-2.9-5.5Z"></path><path d="M272.77,15.65s3,3.76,3.45,6.33a42.9,42.9,0,0,1,.49,7c-.06.28,3.26.15,3.26.15a64.59,64.59,0,0,0-.45-7.75,28,28,0,0,0-3.33-7.91Z"></path><path d="M278,14.22a25.32,25.32,0,0,1,3.73,13.1A11,11,0,0,0,285.9,24a37,37,0,0,0,3.66-5.5S283.15,12.78,278,14.22Z"></path><path d="M76.51,24.63s-3.42,2.45-5.38,2.94V45.1s-10.93-2.81-14.29-1c0,0,1.53-5.13-.3-5.93s-3.61-1.59-3.91-1.1-.86,1.53-.92,5.74a37.78,37.78,0,0,0,.92,9.15c.25,1,1.2,2.84-.92,2.58-2.57-.3-2.08-1.65-2.32-3.48s-.92-14.29,2-23.33S59.59,8.81,60.75,7.41s3.6-.31,3.6-.31,1.1.8-.18,1.9a38.27,38.27,0,0,0-7.82,13,3.18,3.18,0,0,0,1.71,1c1,.19,4.58,2,5.5-4.52C63.56,18.4,65.64,21.7,76.51,24.63Z"></path><path d="M59.41,6.43l-3.12-.92s-5.38,9.23-7.15,14.24h-2.8s-2.2,2.13-3.18,6.9-1.16,6.17-.61,8.49l2.26,1.22s-.74,8.92-.55,15a30,30,0,0,0,3.17,1.34s0-17.9,2.33-25.35S57.82,8.08,59.41,6.43Z"></path><path d="M44.5,20.42a32.54,32.54,0,0,0-3.3,12.4l-2.5-1.28s.92-7.94,3.24-11.12Z"></path><path d="M35.83,19.47l4,.7c.49.1-2.66,4.07-3,10.94,0,0-5.56-2.05-6.94-2l3.85-5.31-1-1.77s-4.64,5.22-4.7,5.4.76-6.87,3.39-9.53A13.94,13.94,0,0,1,34,21.64c.59,1.68,2.11,7.27,2.11,7.27a11.78,11.78,0,0,0,.55-5.59C36,20.88,35.83,19.47,35.83,19.47Z"></path><path d="M29.29,17.58S26.45,21,25.69,28.24l-1.22.55A22.49,22.49,0,0,1,25,21.73a19.69,19.69,0,0,1,2.9-5.5Z"></path><path d="M27,15.65S24,19.41,23.58,22a42.9,42.9,0,0,0-.49,7c.06.28-3.26.15-3.26.15a64.59,64.59,0,0,1,.45-7.75,28,28,0,0,1,3.33-7.91Z"></path><path d="M21.84,14.22a25.32,25.32,0,0,0-3.73,13.1A11,11,0,0,1,13.9,24a37,37,0,0,1-3.66-5.5S16.65,12.78,21.84,14.22Z"></path><path d="M121.83,57.37l-6.59,6.91s2.93,1.77,12.33,1.4S141.68,64,141.68,64s-6.35-5-6.71-6.6Z"></path><path d="M178.15,57.37l6.6,6.91s-2.93,1.77-12.34,1.4S158.3,64,158.3,64s6.35-5,6.72-6.6Z"></path><path d="M158.79,57.37c-2.57,3.36-8.8,6.42-8.8,6.42s-6.23-3.06-8.79-6.42h-5.14s8.13,8.13,13.93,10.2c5.8-2.07,13.93-10.2,13.93-10.2Z"></path><path d="M142.23,57.37s4.59,4.22,7.76,5.44c3.18-1.22,7.76-5.44,7.76-5.44Z"></path><path d="M129.53,17.91v1.65h40.92V17.91C162.33,17.85,150,12,150,12S137.65,17.85,129.53,17.91Z"></path><path d="M174.85,14.43A48.12,48.12,0,0,1,150,6.61a48.12,48.12,0,0,1-24.86,7.82l-.79,5.13h4.09l.24-2.32C144.25,15,150,11,150,11s5.74,4,21.32,6.29l.24,2.32h4.1Z"></path></svg>
